<svg aria-hidden="true" style="position: absolute; width: 500; height: 500; overflow: hidden;" version="1.1" xmlns="http://www.w3.org/2000/svg" xmlns:xlink="http://www.w3.org/1999/xlink">
<defs>

<symbol id="icon-scroll" viewBox="0 0 32 32">
<path  d="M15.999 2c0.265 0 0.52 0.105 0.707 0.293s0.293 0.442 0.293 0.707v23.586l6.292-6.294c0.188-0.188 0.442-0.293 0.708-0.293s0.52 0.105 0.708 0.293 0.293 0.442 0.293 0.708c0 0.266-0.105 0.52-0.293 0.708l-8 8c-0.093 0.093-0.203 0.167-0.325 0.217s-0.252 0.076-0.383 0.076c-0.132 0-0.262-0.026-0.383-0.076s-0.232-0.124-0.325-0.217l-8-8c-0.188-0.188-0.293-0.442-0.293-0.708s0.106-0.52 0.293-0.708c0.188-0.188 0.442-0.293 0.708-0.293s0.52 0.105 0.708 0.293l6.292 6.294v-23.586c0-0.265 0.105-0.52 0.293-0.707s0.442-0.293 0.707-0.293z"></path>
</symbol>
<symbol id="icon-open" viewBox="0 0 32 32">
<path fill="#fff" style="fill: var(--color1, #fff)" d="M18.667 4v2.667h4.787l-13.107 13.107 1.88 1.88 13.107-13.107v4.787h2.667v-9.333zM25.333 25.333h-18.667v-18.667h9.333v-2.667h-9.333c-1.48 0-2.667 1.2-2.667 2.667v18.667c0 0.707 0.281 1.386 0.781 1.886s1.178 0.781 1.886 0.781h18.667c0.707 0 1.386-0.281 1.886-0.781s0.781-1.178 0.781-1.886v-9.333h-2.667v9.333z"></path>
</symbol>
<symbol id="icon-css3" viewBox="0 0 32 32">
<path fill="#1572b6" style="fill: var(--color2, #1572b6)" d="M4.704 28.531l-2.514-28.193h27.62l-2.516 28.189-11.311 3.136-11.28-3.131z"></path>
<path fill="#33a9dc" style="fill: var(--color3, #33a9dc)" d="M16 29.265l9.14-2.534 2.15-24.088h-11.29v26.622z"></path>
<path fill="#fff" style="fill: var(--color1, #fff)" d="M16 12.857h4.575l0.316-3.541h-4.892v-3.458h8.671l-0.083 0.928-0.85 9.529h-7.738v-3.458z"></path>
<path fill="#ebebeb" style="fill: var(--color4, #ebebeb)" d="M16.021 21.837l-0.015 0.005-3.851-1.040-0.246-2.758h-3.47l0.484 5.429 7.083 1.966 0.016-0.005v-3.598z"></path>
<path fill="#fff" style="fill: var(--color1, #fff)" d="M20.282 16.169l-0.416 4.631-3.857 1.041v3.598l7.088-1.965 0.052-0.584 0.602-6.72h-3.469z"></path>
<path fill="#ebebeb" style="fill: var(--color4, #ebebeb)" d="M16.012 5.859v3.458h-8.352l-0.069-0.777-0.157-1.753-0.083-0.928h8.662zM16 12.858v3.458h-3.802l-0.069-0.777-0.158-1.753-0.082-0.928h4.112z"></path>
</symbol>
<symbol id="icon-html5" viewBox="0 0 32 32">
<path fill="#e44d26" style="fill: var(--color5, #e44d26)" d="M4.759 28.469l-2.501-28.054h27.484l-2.504 28.049-11.255 3.12-11.224-3.116z"></path>
<path fill="#f16529" style="fill: var(--color6, #f16529)" d="M16 29.2l9.095-2.521 2.14-23.969h-11.234v26.491z"></path>
<path fill="#ebebeb" style="fill: var(--color4, #ebebeb)" d="M16 13.114h-4.553l-0.315-3.524h4.867v-3.441h-8.628l0.082 0.923 0.845 9.482h7.7v-3.441zM16 22.049l-0.015 0.004-3.832-1.035-0.245-2.744h-3.454l0.482 5.402 7.048 1.956 0.016-0.004v-3.58z"></path>
<path fill="#fff" style="fill: var(--color1, #fff)" d="M15.988 13.114v3.441h4.237l-0.399 4.462-3.838 1.036v3.58l7.054-1.955 0.052-0.581 0.808-9.058 0.084-0.924h-7.998zM15.988 6.15v3.441h8.311l0.069-0.773 0.157-1.745 0.082-0.923h-8.619z"></path>
</symbol>
<symbol id="icon-javascript" viewBox="0 0 32 32">
<path fill="#f0db4f" style="fill: var(--color7, #f0db4f)" d="M0.352 0.352h31.296v31.296h-31.296v-31.296z"></path>
<path fill="#323330" style="fill: var(--color8, #323330)" d="M29.087 24.184c-0.229-1.428-1.16-2.627-3.918-3.745-0.958-0.44-2.026-0.756-2.344-1.482-0.113-0.422-0.128-0.66-0.056-0.916 0.205-0.83 1.196-1.089 1.981-0.851 0.506 0.169 0.985 0.559 1.273 1.181 1.351-0.875 1.348-0.869 2.291-1.47-0.345-0.535-0.529-0.782-0.756-1.011-0.812-0.907-1.919-1.374-3.689-1.339l-0.922 0.119c-0.884 0.223-1.726 0.687-2.219 1.309-1.482 1.681-1.059 4.623 0.744 5.834 1.776 1.333 4.385 1.636 4.718 2.883 0.324 1.526-1.122 2.020-2.558 1.845-1.059-0.22-1.648-0.759-2.285-1.737-1.172 0.678-1.172 0.678-2.377 1.371 0.286 0.625 0.586 0.907 1.065 1.449 2.267 2.3 7.94 2.186 8.957-1.294 0.041-0.119 0.315-0.916 0.095-2.145zM17.366 14.736h-2.927l-0.012 7.568c0 1.61 0.083 3.085-0.178 3.537-0.428 0.889-1.538 0.779-2.044 0.607-0.515-0.253-0.777-0.613-1.080-1.121-0.083-0.146-0.146-0.259-0.167-0.268l-2.38 1.457c0.396 0.812 0.979 1.517 1.726 1.975 1.116 0.669 2.615 0.875 4.183 0.515 1.021-0.297 1.901-0.913 2.362-1.85 0.666-1.229 0.523-2.716 0.517-4.361 0.015-2.684 0-5.367 0-8.059z"></path>
</symbol>
<symbol id="icon-vsc" viewBox="0 0 33 32">
<path fill="#0065a9" style="fill: var(--color1, #0065a9)" opacity="0.78" d="M31.744 3.377l-6.776-3.179c-0.383-0.18-0.813-0.239-1.232-0.169s-0.805 0.264-1.105 0.556l-22.183 19.708c-0.597 0.53-0.596 1.445 0.002 1.975l1.812 1.605c0.237 0.21 0.541 0.332 0.861 0.346s0.634-0.082 0.889-0.27l26.713-19.747c0.896-0.662 2.183-0.040 2.183 1.056v-0.077c0-0.377-0.109-0.746-0.315-1.066s-0.5-0.575-0.849-0.739z"></path>
<path fill="#007acc" style="fill: var(--color2, #007acc)" opacity="0.78" d="M31.744 28.503l-6.776 3.179c-0.383 0.179-0.813 0.239-1.232 0.169s-0.805-0.264-1.105-0.556l-22.183-19.708c-0.597-0.53-0.596-1.445 0.002-1.975l1.812-1.605c0.237-0.21 0.541-0.332 0.861-0.346s0.634 0.082 0.889 0.27l26.713 19.747c0.896 0.662 2.183 0.040 2.183-1.057v0.077c0 0.377-0.109 0.746-0.315 1.066s-0.5 0.575-0.849 0.739z"></path>
<path fill="#1f9cf0" style="fill: var(--color3, #1f9cf0)" opacity="0.78" d="M24.946 31.685c-0.383 0.179-0.813 0.238-1.232 0.169s-0.805-0.264-1.105-0.557c0.758 0.739 2.056 0.216 2.056-0.83v-29.051c0-1.045-1.297-1.569-2.056-0.83 0.3-0.293 0.687-0.487 1.105-0.557s0.849-0.010 1.232 0.169l6.775 3.175c0.349 0.163 0.643 0.42 0.849 0.739s0.315 0.689 0.315 1.066v21.526c0 0.77-0.453 1.471-1.165 1.805l-6.775 3.175z"></path>
<path fill="#000" style="fill: var(--color4, #000)" opacity="0.195" d="M23.321 31.744c0.262 0.099 0.542 0.145 0.822 0.135s0.556-0.077 0.809-0.196l6.771-3.175c0.349-0.164 0.643-0.42 0.849-0.739s0.315-0.689 0.315-1.066v-21.526c0-0.377-0.109-0.747-0.315-1.066s-0.5-0.575-0.849-0.739l-6.771-3.175c-0.383-0.179-0.813-0.238-1.231-0.169s-0.805 0.264-1.105 0.557l-12.962 11.523-5.646-4.176c-0.255-0.188-0.569-0.284-0.888-0.27s-0.624 0.136-0.86 0.346l-1.811 1.605c-0.597 0.529-0.598 1.445-0.002 1.975l4.897 4.353-4.897 4.353c-0.596 0.53-0.596 1.445 0.002 1.975l1.811 1.605c0.236 0.21 0.541 0.332 0.86 0.346s0.634-0.082 0.889-0.27l5.646-4.176 12.962 11.523c0.2 0.196 0.44 0.348 0.705 0.449zM24.671 8.665l-9.835 7.275 9.835 7.275v-14.55z"></path>
</symbol>
<symbol id="icon-Ps" viewBox="0 0 43 32">
<path fill="#31a8ff" style="fill: var(--color1, #31a8ff)" d="M0 30.855v-30.209c0-0.206 0.088-0.323 0.294-0.323 0.499 0 0.969 0 1.644-0.029s1.439-0.029 2.231-0.059c0.793-0.029 1.644-0.029 2.554-0.059s1.791-0.029 2.672-0.029c2.407 0 4.404 0.294 6.048 0.91 1.474 0.5 2.818 1.323 3.934 2.407 0.946 0.949 1.677 2.090 2.143 3.347 0.444 1.223 0.673 2.515 0.675 3.817 0 2.525-0.587 4.609-1.761 6.253-1.18 1.642-2.827 2.89-4.727 3.582-1.996 0.734-4.198 0.998-6.605 0.998-0.705 0-1.174 0-1.468-0.029s-0.705-0.029-1.262-0.029v9.424c0.007 0.048 0.003 0.097-0.009 0.144s-0.035 0.091-0.065 0.129c-0.030 0.038-0.068 0.070-0.11 0.094s-0.090 0.038-0.138 0.043h-5.695c-0.235 0-0.352-0.117-0.352-0.382zM6.4 5.989v9.864c0.411 0.029 0.793 0.059 1.145 0.059h1.556c1.146 0.001 2.285-0.177 3.376-0.528 0.936-0.275 1.772-0.816 2.407-1.556 0.617-0.734 0.91-1.732 0.91-3.024 0.028-0.917-0.207-1.824-0.675-2.613-0.489-0.762-1.209-1.348-2.055-1.673-1.102-0.432-2.281-0.632-3.464-0.587-0.763 0-1.439 0-1.996 0.029-0.401-0.026-0.804-0.016-1.204 0.029z"></path>
<path fill="#31a8ff" style="fill: var(--color1, #31a8ff)" d="M40.514 14.062c-0.886-0.467-1.836-0.803-2.818-0.998-1.079-0.244-2.182-0.372-3.288-0.382-0.594-0.021-1.188 0.049-1.761 0.206-0.366 0.076-0.69 0.285-0.91 0.587-0.148 0.238-0.23 0.512-0.235 0.793 0.014 0.279 0.117 0.547 0.294 0.763 0.278 0.326 0.617 0.596 0.998 0.793 0.675 0.352 1.38 0.675 2.084 0.969 1.586 0.534 3.104 1.253 4.521 2.143 0.964 0.606 1.761 1.444 2.319 2.437 0.472 0.937 0.704 1.976 0.675 3.024 0.024 1.388-0.376 2.75-1.145 3.905-0.819 1.172-1.961 2.080-3.288 2.613-1.439 0.616-3.2 0.939-5.314 0.939-1.34 0.005-2.678-0.122-3.993-0.382-1.035-0.179-2.042-0.495-2.994-0.939-0.102-0.051-0.187-0.132-0.245-0.231s-0.085-0.213-0.078-0.327v-5.108c-0.003-0.050 0.007-0.1 0.027-0.146s0.051-0.086 0.090-0.118c0.041-0.024 0.089-0.034 0.137-0.029s0.092 0.026 0.127 0.058c1.131 0.667 2.359 1.152 3.64 1.439 1.131 0.294 2.296 0.442 3.464 0.44 1.116 0 1.908-0.147 2.437-0.411 0.236-0.109 0.435-0.283 0.576-0.501s0.215-0.472 0.217-0.732c0-0.411-0.235-0.793-0.705-1.174s-1.439-0.822-2.877-1.38c-1.476-0.52-2.877-1.231-4.169-2.114-0.92-0.656-1.682-1.508-2.231-2.495-0.469-0.927-0.7-1.956-0.675-2.995 0.004-1.253 0.349-2.481 0.998-3.552 0.746-1.179 1.816-2.116 3.083-2.701 1.38-0.705 3.112-1.028 5.196-1.028 1.218 0 2.435 0.089 3.64 0.264 0.867 0.117 1.715 0.344 2.525 0.675 0.129 0.046 0.235 0.141 0.294 0.264 0.034 0.115 0.053 0.233 0.059 0.352v4.785c0.001 0.057-0.013 0.113-0.038 0.164s-0.063 0.095-0.109 0.129c-0.171 0.061-0.358 0.061-0.528 0z"></path>
</symbol>
<symbol id="icon-figma" viewBox="0 0 32 32">
<path fill="#19bcfe" style="fill: var(--color5, #19bcfe)" opacity="0.78" d="M21.333 21.333c2.945 0 5.333-2.388 5.333-5.333s-2.388-5.333-5.333-5.333c-2.946 0-5.333 2.388-5.333 5.333s2.388 5.333 5.333 5.333z"></path>
<path fill="#09cf83" style="fill: var(--color6, #09cf83)" opacity="0.78" d="M10.667 32c1.415 0 2.771-0.562 3.771-1.562s1.562-2.357 1.562-3.771v-5.333h-5.333c-1.415 0-2.771 0.562-3.771 1.562s-1.562 2.357-1.562 3.771c0 1.415 0.562 2.771 1.562 3.771s2.357 1.562 3.771 1.562z"></path>
<path fill="#a259ff" style="fill: var(--color7, #a259ff)" opacity="0.78" d="M10.667 21.333h5.333v-10.667h-5.333c-1.415 0-2.771 0.562-3.771 1.562s-1.562 2.357-1.562 3.771c0 1.415 0.562 2.771 1.562 3.771s2.357 1.562 3.771 1.562z"></path>
<path fill="#f24e1e" style="fill: var(--color8, #f24e1e)" opacity="0.78" d="M10.667 10.667h5.333v-10.667h-5.333c-1.415 0-2.771 0.562-3.771 1.562s-1.562 2.357-1.562 3.771c0 1.414 0.562 2.771 1.562 3.771s2.357 1.562 3.771 1.562z"></path>
<path fill="#ff7262" style="fill: var(--color9, #ff7262)" opacity="0.78" d="M21.333 10.667h-5.333v-10.667h5.333c1.414 0 2.771 0.562 3.771 1.562s1.562 2.357 1.562 3.771c0 1.414-0.562 2.771-1.562 3.771s-2.357 1.562-3.771 1.562z"></path>
</symbol>
<symbol id="icon-sass" viewBox="0 0 43 32">
<path fill="#cd6799" style="fill: var(--color1, #cd6799)" d="M36.714 18.419c-1.484 0.008-2.775 0.365-3.855 0.894-0.397-0.785-0.793-1.484-0.863-1.997-0.078-0.598-0.171-0.964-0.078-1.679s0.513-1.733 0.505-1.811c-0.008-0.078-0.093-0.443-0.948-0.451s-1.593 0.163-1.679 0.389-0.249 0.738-0.358 1.267c-0.148 0.777-1.71 3.552-2.604 5.005-0.288-0.567-0.536-1.065-0.591-1.461-0.078-0.598-0.171-0.964-0.078-1.679s0.513-1.733 0.505-1.811c-0.008-0.078-0.093-0.443-0.948-0.451s-1.593 0.163-1.679 0.389c-0.085 0.225-0.179 0.754-0.358 1.267s-2.254 5.145-2.798 6.342c-0.28 0.614-0.521 1.104-0.692 1.438 0 0-0.008 0.023-0.031 0.062-0.148 0.288-0.233 0.443-0.233 0.443s0 0 0 0.008c-0.117 0.21-0.241 0.404-0.303 0.404-0.047 0-0.132-0.559 0.015-1.321 0.311-1.609 1.049-4.111 1.041-4.197 0-0.047 0.14-0.482-0.482-0.707-0.606-0.225-0.824 0.148-0.878 0.148s-0.093 0.132-0.093 0.132 0.676-2.813-1.29-2.813c-1.228 0-2.922 1.345-3.761 2.557-0.528 0.288-1.655 0.901-2.86 1.562-0.459 0.256-0.933 0.513-1.376 0.754-0.031-0.031-0.062-0.070-0.093-0.101-2.378-2.541-6.777-4.337-6.59-7.748 0.070-1.243 0.497-4.508 8.448-8.471 6.544-3.225 11.751-2.332 12.652-0.35 1.29 2.829-2.79 8.083-9.551 8.844-2.58 0.288-3.932-0.707-4.274-1.080-0.357-0.389-0.412-0.412-0.544-0.334-0.218 0.117-0.078 0.466 0 0.668 0.202 0.528 1.034 1.461 2.44 1.92 1.243 0.404 4.267 0.63 7.927-0.785 4.096-1.585 7.298-5.992 6.357-9.684-0.94-3.746-7.158-4.982-13.041-2.891-3.497 1.243-7.29 3.202-10.018 5.751-3.241 3.031-3.754 5.666-3.544 6.769 0.754 3.917 6.155 6.466 8.316 8.355-0.109 0.062-0.21 0.116-0.295 0.163-1.080 0.536-5.199 2.689-6.225 4.966-1.166 2.58 0.187 4.43 1.080 4.678 2.775 0.77 5.627-0.614 7.158-2.899s1.345-5.254 0.637-6.614c-0.008-0.015-0.016-0.031-0.031-0.047 0.28-0.163 0.567-0.334 0.847-0.497 0.552-0.326 1.096-0.63 1.562-0.878-0.264 0.723-0.459 1.585-0.552 2.829-0.117 1.461 0.482 3.357 1.267 4.104 0.35 0.326 0.762 0.334 1.026 0.334 0.917 0 1.329-0.762 1.788-1.663 0.559-1.104 1.065-2.386 1.065-2.386s-0.63 3.466 1.080 3.466c0.622 0 1.251-0.808 1.531-1.22v0.008c0 0 0.015-0.023 0.047-0.078 0.062-0.101 0.101-0.163 0.101-0.163v-0.015c0.249-0.435 0.808-1.422 1.64-3.062 1.073-2.114 2.106-4.756 2.106-4.756s0.093 0.645 0.412 1.718c0.186 0.63 0.575 1.321 0.886 1.989-0.249 0.35-0.404 0.544-0.404 0.544s0 0 0.008 0.008c-0.202 0.264-0.42 0.552-0.661 0.831-0.847 1.010-1.857 2.168-1.997 2.503-0.163 0.396-0.124 0.684 0.186 0.917 0.226 0.171 0.63 0.194 1.041 0.171 0.762-0.054 1.298-0.241 1.562-0.358 0.412-0.148 0.894-0.373 1.345-0.707 0.832-0.614 1.337-1.492 1.29-2.65-0.023-0.637-0.233-1.274-0.49-1.873 0.078-0.109 0.148-0.218 0.226-0.326 1.313-1.92 2.331-4.026 2.331-4.026s0.093 0.645 0.412 1.718c0.155 0.544 0.474 1.135 0.754 1.71-1.236 1.003-1.997 2.168-2.269 2.93-0.489 1.415-0.109 2.052 0.614 2.199 0.326 0.070 0.793-0.085 1.135-0.233 0.435-0.14 0.948-0.381 1.438-0.738 0.831-0.614 1.632-1.469 1.585-2.627-0.023-0.528-0.163-1.049-0.358-1.554 1.049-0.435 2.401-0.676 4.127-0.474 3.699 0.435 4.43 2.743 4.29 3.715s-0.917 1.5-1.173 1.663c-0.257 0.163-0.342 0.218-0.319 0.334 0.031 0.171 0.155 0.163 0.373 0.132 0.303-0.054 1.943-0.785 2.013-2.572 0.117-2.285-2.059-4.779-5.907-4.756zM8.176 28.040c-1.228 1.337-2.938 1.842-3.676 1.415-0.793-0.459-0.482-2.433 1.026-3.847 0.917-0.863 2.098-1.663 2.883-2.153 0.179-0.109 0.443-0.264 0.762-0.459 0.054-0.031 0.085-0.047 0.085-0.047 0.062-0.039 0.124-0.078 0.187-0.116 0.552 2.021 0.023 3.8-1.267 5.207zM17.113 21.963c-0.427 1.041-1.321 3.707-1.865 3.559-0.466-0.124-0.754-2.145-0.093-4.142 0.334-1.003 1.041-2.2 1.453-2.666 0.668-0.746 1.407-0.995 1.585-0.692 0.226 0.396-0.816 3.288-1.080 3.94zM24.489 25.491c-0.179 0.093-0.35 0.155-0.427 0.109-0.054-0.031 0.078-0.155 0.078-0.155s0.925-0.995 1.29-1.445c0.21-0.264 0.459-0.575 0.723-0.925v0.101c0 1.189-1.15 1.99-1.663 2.316zM30.177 24.193c-0.132-0.093-0.109-0.404 0.334-1.376 0.171-0.381 0.575-1.018 1.267-1.632 0.078 0.249 0.132 0.49 0.124 0.715-0.008 1.5-1.080 2.059-1.725 2.293z"></path>
</symbol>
<symbol id="icon-bem" viewBox="0 0 39 32">
<path d="M0 4.935h9.034v2.657h-9.034v-2.657zM0 0h9.034v2.657h-9.034v-2.657zM16.208 9.831h-16.208v2.657h15.601c1.708 0 5.694 0.038 7.174 2.429v-1.48c-0.721-2.353-2.847-3.606-6.567-3.606zM16.246 14.766h-16.246v2.657h15.601c3.796 0 6.187 0.152 7.174 0.683v-1.177c-0.759-1.86-3.948-2.164-6.529-2.164zM16.208 27.292h-16.208v-2.657h15.601c1.708 0 5.694-0.038 7.174-2.429v1.48c-0.721 2.354-2.847 3.606-6.567 3.606zM16.246 22.357h-16.246v-2.657h15.601c3.796 0 6.187-0.152 7.174-0.683v1.177c-0.759 1.86-3.948 2.164-6.529 2.164zM26.723 31.885h11.919v-1.632h-11.577c-1.025 0-3.454-0.038-4.327-1.442v0.911c0.418 1.404 1.708 2.164 3.986 2.164zM26.685 28.886h11.919v-1.632h-11.539c-2.315 0-3.758-0.076-4.327-0.418v0.721c0.455 1.139 2.391 1.328 3.948 1.328z"></path>
</symbol>
<symbol id="icon-github" viewBox="0 0 33 32">
<path fill="#ffffff" d="M16.384 0c-9.047 0-16.384 7.335-16.384 16.384 0 7.239 4.695 13.38 11.204 15.547 0.819 0.152 1.119-0.355 1.119-0.788 0-0.391-0.015-1.681-0.022-3.050-4.558 0.991-5.52-1.933-5.52-1.933-0.745-1.894-1.819-2.397-1.819-2.397-1.487-1.017 0.112-0.996 0.112-0.996 1.645 0.116 2.512 1.688 2.512 1.688 1.461 2.505 3.833 1.781 4.768 1.362 0.147-1.059 0.572-1.782 1.040-2.191-3.639-0.414-7.465-1.819-7.465-8.097 0-1.789 0.64-3.25 1.688-4.398-0.17-0.413-0.731-2.079 0.159-4.336 0 0 1.376-0.44 4.507 1.679 1.307-0.363 2.709-0.545 4.101-0.551 1.392 0.006 2.795 0.188 4.104 0.551 3.127-2.12 4.501-1.679 4.501-1.679 0.892 2.257 0.331 3.923 0.161 4.336 1.050 1.147 1.686 2.609 1.686 4.398 0 6.293-3.833 7.678-7.481 8.084 0.588 0.508 1.111 1.506 1.111 3.034 0 2.192-0.019 3.956-0.019 4.496 0 0.436 0.295 0.947 1.125 0.786 6.506-2.169 11.195-8.308 11.195-15.545 0-9.049-7.336-16.384-16.384-16.384zM6.136 23.34c-0.036 0.081-0.164 0.106-0.281 0.050-0.119-0.053-0.186-0.164-0.147-0.246 0.035-0.084 0.164-0.107 0.282-0.051 0.119 0.053 0.187 0.166 0.146 0.247zM6.942 24.059c-0.078 0.072-0.231 0.039-0.335-0.076-0.107-0.114-0.127-0.267-0.048-0.34 0.081-0.072 0.229-0.039 0.336 0.076 0.107 0.116 0.128 0.267 0.046 0.34zM7.495 24.979c-0.1 0.070-0.265 0.004-0.366-0.141-0.1-0.146-0.1-0.32 0.002-0.39s0.263-0.007 0.366 0.137c0.1 0.148 0.1 0.323-0.002 0.394zM8.43 26.044c-0.090 0.099-0.281 0.072-0.421-0.063-0.143-0.132-0.183-0.32-0.093-0.419s0.283-0.071 0.424 0.063c0.142 0.132 0.186 0.321 0.090 0.419zM9.639 26.404c-0.040 0.128-0.224 0.187-0.409 0.132-0.185-0.056-0.307-0.206-0.269-0.336 0.039-0.129 0.224-0.19 0.411-0.132 0.185 0.056 0.307 0.205 0.268 0.336zM11.014 26.557c0.005 0.135-0.153 0.247-0.348 0.25-0.196 0.004-0.354-0.105-0.357-0.238 0-0.136 0.154-0.247 0.35-0.251 0.195-0.004 0.354 0.105 0.354 0.239zM12.365 26.505c0.023 0.132-0.112 0.267-0.306 0.303-0.19 0.035-0.366-0.047-0.39-0.177-0.024-0.135 0.114-0.271 0.304-0.306 0.194-0.034 0.367 0.046 0.392 0.18z"></path>
</symbol>
<symbol id="icon-github_" viewBox="0 0 33 32">
<path fill="#000" d="M16.384 0c-9.047 0-16.384 7.335-16.384 16.384 0 7.239 4.695 13.38 11.204 15.547 0.819 0.152 1.119-0.355 1.119-0.788 0-0.391-0.015-1.681-0.022-3.050-4.558 0.991-5.52-1.933-5.52-1.933-0.745-1.894-1.819-2.397-1.819-2.397-1.487-1.017 0.112-0.996 0.112-0.996 1.645 0.116 2.512 1.688 2.512 1.688 1.461 2.505 3.833 1.781 4.768 1.362 0.147-1.059 0.572-1.782 1.040-2.191-3.639-0.414-7.465-1.819-7.465-8.097 0-1.789 0.64-3.25 1.688-4.398-0.17-0.413-0.731-2.079 0.159-4.336 0 0 1.376-0.44 4.507 1.679 1.307-0.363 2.709-0.545 4.101-0.551 1.392 0.006 2.795 0.188 4.104 0.551 3.127-2.12 4.501-1.679 4.501-1.679 0.892 2.257 0.331 3.923 0.161 4.336 1.050 1.147 1.686 2.609 1.686 4.398 0 6.293-3.833 7.678-7.481 8.084 0.588 0.508 1.111 1.506 1.111 3.034 0 2.192-0.019 3.956-0.019 4.496 0 0.436 0.295 0.947 1.125 0.786 6.506-2.169 11.195-8.308 11.195-15.545 0-9.049-7.336-16.384-16.384-16.384zM6.136 23.34c-0.036 0.081-0.164 0.106-0.281 0.050-0.119-0.053-0.186-0.164-0.147-0.246 0.035-0.084 0.164-0.107 0.282-0.051 0.119 0.053 0.187 0.166 0.146 0.247zM6.942 24.059c-0.078 0.072-0.231 0.039-0.335-0.076-0.107-0.114-0.127-0.267-0.048-0.34 0.081-0.072 0.229-0.039 0.336 0.076 0.107 0.116 0.128 0.267 0.046 0.34zM7.495 24.979c-0.1 0.070-0.265 0.004-0.366-0.141-0.1-0.146-0.1-0.32 0.002-0.39s0.263-0.007 0.366 0.137c0.1 0.148 0.1 0.323-0.002 0.394zM8.43 26.044c-0.090 0.099-0.281 0.072-0.421-0.063-0.143-0.132-0.183-0.32-0.093-0.419s0.283-0.071 0.424 0.063c0.142 0.132 0.186 0.321 0.090 0.419zM9.639 26.404c-0.040 0.128-0.224 0.187-0.409 0.132-0.185-0.056-0.307-0.206-0.269-0.336 0.039-0.129 0.224-0.19 0.411-0.132 0.185 0.056 0.307 0.205 0.268 0.336zM11.014 26.557c0.005 0.135-0.153 0.247-0.348 0.25-0.196 0.004-0.354-0.105-0.357-0.238 0-0.136 0.154-0.247 0.35-0.251 0.195-0.004 0.354 0.105 0.354 0.239zM12.365 26.505c0.023 0.132-0.112 0.267-0.306 0.303-0.19 0.035-0.366-0.047-0.39-0.177-0.024-0.135 0.114-0.271 0.304-0.306 0.194-0.034 0.367 0.046 0.392 0.18z"></path>
</symbol>
<symbol id="icon-netlify" viewBox="0 0 32 32">
<path fill="#00f5a0"  d="M23.192 11.105l-0.012-0.005c-0.007-0.002-0.013-0.005-0.019-0.011-0.019-0.021-0.028-0.050-0.023-0.078l0.646-3.944 3.029 3.026-3.15 1.339c-0.009 0.004-0.018 0.005-0.028 0.005h-0.012c-0.004-0.002-0.008-0.006-0.017-0.014-0.117-0.13-0.257-0.238-0.413-0.318zM27.584 10.864l3.238 3.235c0.673 0.673 1.009 1.008 1.132 1.397 0.018 0.057 0.033 0.115 0.045 0.174l-7.739-3.274c-0.004-0.002-0.008-0.003-0.012-0.005-0.031-0.012-0.067-0.027-0.067-0.058s0.037-0.047 0.068-0.059l0.010-0.004 3.325-1.405zM31.868 16.709c-0.167 0.314-0.493 0.639-1.044 1.191l-3.651 3.646-4.747-0.987c-0.042-0.007-0.086-0.014-0.086-0.052-0.036-0.393-0.235-0.754-0.547-0.996-0.019-0.019-0.014-0.049-0.008-0.077 0-0.004 0-0.008 0.002-0.012l0.888-5.446 0.003-0.018c0.005-0.042 0.013-0.090 0.050-0.090 0.384-0.048 0.734-0.248 0.969-0.555 0.008-0.008 0.012-0.018 0.023-0.023 0.027-0.013 0.058 0 0.086 0.012l8.063 3.407zM26.333 22.385l-6.004 5.997 1.028-6.309 0.002-0.008c0.001-0.008 0.003-0.017 0.005-0.024 0.008-0.020 0.030-0.028 0.051-0.037l0.010-0.004c0.225-0.096 0.424-0.244 0.581-0.431 0.020-0.023 0.044-0.046 0.075-0.050 0.008-0.001 0.016-0.001 0.024 0l4.228 0.867zM19.058 29.651l-0.677 0.676-7.482-10.801c-0.003-0.004-0.005-0.008-0.008-0.012-0.012-0.016-0.024-0.032-0.022-0.050 0.001-0.013 0.009-0.025 0.018-0.035l0.008-0.011c0.023-0.033 0.042-0.067 0.063-0.103l0.017-0.029 0.002-0.003c0.012-0.020 0.023-0.039 0.043-0.050 0.018-0.008 0.042-0.005 0.061-0.001l8.289 1.708c0.023 0.003 0.045 0.013 0.064 0.027 0.011 0.011 0.013 0.023 0.016 0.036 0.117 0.443 0.435 0.806 0.859 0.981 0.023 0.012 0.013 0.038 0.003 0.065-0.005 0.012-0.010 0.025-0.012 0.038-0.104 0.634-1 6.091-1.241 7.564zM17.645 31.063c-0.499 0.493-0.793 0.754-1.125 0.86-0.328 0.103-0.68 0.103-1.008 0-0.389-0.123-0.726-0.459-1.399-1.132l-7.513-7.505 1.963-3.040c0.009-0.015 0.018-0.028 0.033-0.039 0.021-0.015 0.051-0.008 0.076 0 0.45 0.136 0.934 0.111 1.369-0.069 0.023-0.008 0.045-0.014 0.063 0.002 0.009 0.008 0.017 0.017 0.023 0.027l7.519 10.898zM5.875 22.562l-1.724-1.722 3.404-1.45c0.009-0.004 0.018-0.006 0.028-0.006 0.028 0 0.045 0.028 0.060 0.054 0.034 0.053 0.070 0.104 0.109 0.154l0.011 0.013c0.010 0.014 0.003 0.028-0.007 0.042l-1.881 2.915zM3.389 20.078l-2.181-2.178c-0.371-0.37-0.64-0.639-0.827-0.87l6.63 1.374c0.008 0.002 0.017 0.003 0.025 0.004 0.041 0.007 0.086 0.014 0.086 0.052 0 0.042-0.049 0.061-0.091 0.077l-0.019 0.008-3.623 1.533zM0 15.909c0.008-0.14 0.033-0.279 0.075-0.413 0.124-0.389 0.46-0.725 1.133-1.397l2.791-2.787c1.285 1.863 2.573 3.723 3.865 5.581 0.023 0.030 0.048 0.063 0.022 0.088-0.122 0.134-0.244 0.281-0.33 0.441-0.009 0.020-0.024 0.038-0.042 0.052-0.011 0.007-0.023 0.004-0.035 0.002h-0.002l-7.477-1.566zM4.746 10.566l3.752-3.748c0.353 0.154 1.636 0.696 2.784 1.18 0.869 0.367 1.661 0.701 1.91 0.81 0.025 0.010 0.048 0.020 0.059 0.045 0.007 0.015 0.003 0.034 0 0.050-0.121 0.55 0.043 1.123 0.437 1.526 0.025 0.025 0 0.061-0.022 0.092l-0.012 0.018-3.81 5.895c-0.010 0.017-0.019 0.031-0.036 0.042-0.020 0.012-0.048 0.007-0.072 0.001-0.148-0.039-0.3-0.059-0.454-0.062-0.137 0-0.286 0.025-0.436 0.052h-0.001c-0.017 0.003-0.032 0.006-0.045-0.004-0.015-0.012-0.027-0.026-0.038-0.043l-4.017-5.853zM9.256 6.061l4.857-4.852c0.673-0.672 1.009-1.008 1.399-1.131 0.328-0.104 0.68-0.104 1.008 0 0.389 0.123 0.726 0.459 1.399 1.131l1.053 1.052-3.455 5.345c-0.009 0.016-0.020 0.029-0.034 0.040-0.021 0.014-0.050 0.008-0.075 0-0.553-0.168-1.153-0.052-1.604 0.309-0.023 0.023-0.056 0.010-0.084-0.003-0.451-0.196-3.96-1.678-4.462-1.89zM19.704 2.993l3.19 3.186-0.769 4.755v0.012c-0.001 0.011-0.003 0.022-0.007 0.032-0.008 0.017-0.025 0.020-0.042 0.025-0.164 0.050-0.319 0.127-0.458 0.228-0.006 0.004-0.012 0.009-0.017 0.014-0.009 0.010-0.018 0.019-0.033 0.021-0.012 0-0.024-0.002-0.036-0.006l-4.87-2.067c-0.031-0.013-0.068-0.028-0.068-0.059-0.029-0.271-0.117-0.531-0.259-0.764-0.023-0.038-0.049-0.078-0.029-0.118l3.397-5.26zM16.419 10.175l4.557 1.928c0.025 0.012 0.053 0.023 0.064 0.048 0.004 0.016 0.004 0.032 0 0.048-0.013 0.067-0.025 0.143-0.025 0.22v0.128c0 0.032-0.032 0.045-0.063 0.058l-0.009 0.003c-0.722 0.308-10.134 4.317-10.149 4.317s-0.029 0-0.043-0.014c-0.025-0.025 0-0.060 0.023-0.092 0.004-0.006 0.008-0.011 0.012-0.017l3.751-5.802c0.022-0.035 0.047-0.074 0.087-0.074l0.037 0.006c0.085 0.012 0.161 0.023 0.236 0.023 0.568 0 1.095-0.276 1.412-0.749 0.008-0.013 0.017-0.024 0.028-0.033 0.023-0.017 0.056-0.008 0.082 0.003zM11.201 17.841l10.26-4.371c0 0 0.015 0 0.029 0.014 0.056 0.056 0.104 0.093 0.149 0.129l0.023 0.014c0.021 0.012 0.042 0.025 0.044 0.047 0 0.008 0 0.013-0.002 0.021l-0.879 5.393-0.003 0.022c-0.006 0.042-0.012 0.089-0.051 0.089-0.476 0.032-0.905 0.297-1.147 0.707l-0.004 0.007c-0.012 0.019-0.023 0.038-0.042 0.048-0.017 0.008-0.040 0.005-0.058 0.001l-8.182-1.686c-0.008-0.002-0.127-0.433-0.136-0.434z"></path>
</symbol>
<symbol id="icon-gtm" viewBox="0 0 32 32">
<path fill="#8ab4f8" style="fill: var(--color2, #8ab4f8)" d="M18.783 30.689l-5.555-5.416 11.929-12.182 5.751 5.636-12.125 11.962z"></path>
<path fill="#4285f4" style="fill: var(--color3, #4285f4)" d="M18.806 6.742l-5.535-5.651-12.102 11.987c-1.56 1.56-1.56 4.089 0 5.651l11.92 11.998 5.636-5.273-9.082-9.551 9.162-9.162z"></path>
<path fill="#8ab4f8" style="fill: var(--color2, #8ab4f8)" d="M30.828 13.171l-12-12c-1.562-1.562-4.095-1.562-5.656 0s-1.562 4.095 0 5.656l12 12c1.562 1.562 4.095 1.562 5.656 0s1.562-4.095 0-5.656z"></path>
<path fill="#246fdb" style="fill: var(--color4, #246fdb)" d="M15.908 32.001c2.159 0 3.909-1.75 3.909-3.909s-1.75-3.909-3.909-3.909c-2.159 0-3.909 1.75-3.909 3.909s1.75 3.909 3.909 3.909z"></path>
</symbol>
<symbol id="icon-google-dev" viewBox="0 0 66 32">
<path fill="#fabc05" style="fill: var(--color1, #fabc05)" d="M47.185 17.332c3.448-1.98 6.887-3.977 10.347-5.937 3.284-1.861 7.148-0.145 7.892 3.476 0.431 2.095-0.504 4.357-2.395 5.459-6.2 3.613-12.409 7.211-18.648 10.755-1.931 1.097-3.921 0.895-5.681-0.449-1.788-1.364-2.351-3.247-1.932-5.437 0.479-1.668 1.574-2.782 3.069-3.616 2.471-1.379 4.901-2.83 7.349-4.251z"></path>
<path fill="#109d58" style="fill: var(--color2, #109d58)" d="M49.716 15.892c-3.439-1.996-6.887-3.976-10.315-5.992-3.254-1.914-3.699-6.118-0.936-8.573 1.598-1.42 4.026-1.742 5.926-0.655 6.229 3.563 12.45 7.141 18.638 10.773 1.915 1.124 2.735 2.948 2.452 5.144-0.288 2.23-1.636 3.659-3.743 4.392-1.684 0.419-3.197 0.028-4.666-0.849-2.43-1.45-4.902-2.83-7.356-4.239z"></path>
<path fill="#e94436" style="fill: var(--color3, #e94436)" d="M18.368 14.48c-2.207 1.254-4.415 2.505-6.62 3.763-1.29 0.736-2.565 1.497-3.861 2.22-2.612 1.458-5.715 0.603-7.196-1.965-1.413-2.45-0.601-5.627 1.914-7.096 6.15-3.59 12.317-7.154 18.505-10.678 1.898-1.081 3.867-0.945 5.622 0.347 1.852 1.364 2.459 3.283 2.043 5.532-0.258 0.544-0.412 1.182-0.798 1.611-0.628 0.698-1.343 1.365-2.138 1.856-2.461 1.517-4.976 2.945-7.471 4.408z"></path>
<path fill="#4385f3" style="fill: var(--color4, #4385f3)" d="M15.838 15.887c2.19 1.284 4.378 2.571 6.569 3.852 1.282 0.749 2.578 1.473 3.853 2.234 2.569 1.533 3.38 4.648 1.897 7.214-1.416 2.449-4.573 3.335-7.102 1.89-6.184-3.532-12.354-7.090-18.5-10.687-1.885-1.103-2.752-2.877-2.51-5.043 0.255-2.286 1.613-3.771 3.77-4.536 0.6-0.048 1.23-0.234 1.795-0.114 0.918 0.196 1.854 0.48 2.676 0.923 2.544 1.372 5.039 2.837 7.553 4.266z"></path>
</symbol>
<symbol id="icon-google-analytics" viewBox="0 0 29 32">
<path fill="#f9ab00" style="fill: var(--color5, #f9ab00)" d="M28.845 27.936c0.006 1.138-0.477 2.223-1.325 2.981s-1.982 1.115-3.111 0.981c-2.033-0.301-3.523-2.070-3.473-4.125v-23.622c-0.049-2.057 1.444-3.827 3.48-4.125 1.129-0.132 2.26 0.226 3.107 0.984s1.329 1.842 1.323 2.978v23.947z"></path>
<path fill="#e37400" style="fill: var(--color6, #e37400)" d="M3.955 24.022c2.184 0 3.955 1.771 3.955 3.955s-1.771 3.955-3.955 3.955c-2.184 0-3.955-1.771-3.955-3.955s1.771-3.955 3.955-3.955zM14.362 12.035c-2.195 0.12-3.897 1.961-3.846 4.159v10.624c0 2.883 1.269 4.633 3.127 5.007 1.167 0.236 2.378-0.064 3.299-0.819s1.453-1.884 1.45-3.075v-11.919c0.002-1.064-0.424-2.085-1.182-2.832s-1.784-1.159-2.848-1.143z"></path>
</symbol>
<symbol id="icon-gmail" viewBox="0 0 33 32">
<path d="M32.054 5.997v19.654c0 1.115-0.85 1.965-1.965 1.965h-1.965v-17.837l-11.793 8.471-11.793-8.471v17.837h-1.965c-1.115 0-1.965-0.85-1.965-1.965v-19.654c0-0.558 0.21-1.050 0.563-1.397 0.184-0.184 0.403-0.329 0.643-0.426s0.499-0.146 0.759-0.142h0.655l13.103 9.5 13.103-9.5h0.656c0.558 0 1.049 0.21 1.402 0.568 0.353 0.348 0.563 0.839 0.563 1.397z"></path>
</symbol>
<symbol id="icon-linkedin" viewBox="0 0 32 32">
<path d="M1.547 31.571h5.743v-21.247h-5.743v21.247zM4.418 0.944c-1.914 0-3.446 1.531-3.446 3.446s1.531 3.446 3.446 3.446c1.914 0 3.446-1.531 3.446-3.446s-1.531-3.446-3.446-3.446zM17.052 13.578v-3.254h-5.743v21.247h5.743v-10.911c0-6.125 7.848-6.508 7.848 0v10.911h5.743v-13.016c0-10.337-10.911-9.954-13.591-4.977z"></path>
</symbol>
<symbol id="icon-github" viewBox="0 0 32 32">
<path fill="#989393" style="fill: var(--color1, #989393)" d="M19.337 25.994c0.131 0.113 0.081 0.269 0.081 0.406 0 1.85 0 3.694 0 5.544 0 0.038 0.012 0.081 0.012 0.119-2.206 0-4.419 0-6.625 0 0.025-1.087 0.025-2.181 0-3.269 0.2 0.006 0.106 0.163 0.106 0.244 0.006 0.875 0.012 1.75 0 2.619-0.006 0.25 0.075 0.319 0.319 0.319 1.925-0.006 3.85-0.012 5.775 0 0.275 0 0.319-0.094 0.319-0.337-0.012-1.581-0.006-3.163-0.006-4.744 0.006-0.3 0.019-0.6 0.019-0.9z"></path>
<path fill="#110505" style="fill: var(--color2, #110505)" d="M19.337 25.994c-0.006 0.3-0.012 0.6-0.012 0.9 0 1.581-0.006 3.163 0.006 4.744 0 0.244-0.044 0.344-0.319 0.337-1.925-0.012-3.85-0.012-5.775 0-0.244 0-0.325-0.069-0.319-0.319 0.012-0.875 0.006-1.75 0-2.619 0-0.081 0.1-0.238-0.106-0.244-0.044 0-0.081 0.006-0.125 0.006-0.081-0.038-0.156-0.031-0.206 0.056-0.775 0.081-1.556 0.144-2.325-0.050-1.363-0.344-2.338-1.15-2.938-2.431-0.388-0.837-0.9-1.613-1.494-2.325-0.188-0.225-0.487-0.313-0.688-0.538-0.075-0.087-0.2-0.156-0.162-0.275 0.037-0.144 0.194-0.137 0.319-0.15 1.25-0.106 2.138 0.488 2.756 1.512 0.569 0.938 1.313 1.631 2.387 1.913 0.762 0.2 1.525 0.156 2.275-0.075 0.175-0.056 0.269-0.131 0.287-0.344 0.056-0.775 0.219-1.525 0.756-2.181-0.206-0.038-0.369-0.075-0.537-0.1-1.325-0.2-2.556-0.656-3.625-1.475-1.194-0.913-1.938-2.131-2.169-3.625-0.2-1.306-0.125-2.619 0.044-3.925 0.131-1.006 0.412-1.963 1.137-2.713 0.256-0.262 0.275-0.475 0.162-0.806-0.381-1.113-0.275-2.231 0.069-3.344 0.063-0.206 0.156-0.269 0.381-0.213 0.844 0.206 1.494 0.7 2.081 1.3 0.287 0.287 0.531 0.613 0.769 0.938 0.069 0.094 0.119 0.144 0.238 0.050 0.45-0.356 0.994-0.469 1.537-0.55 1.575-0.225 3.156-0.231 4.731-0.006 0.525 0.075 1.056 0.169 1.494 0.5 0.206 0.156 0.288 0.069 0.4-0.094 0.419-0.613 0.931-1.137 1.531-1.569 0.381-0.275 0.806-0.463 1.269-0.575 0.2-0.050 0.281 0.006 0.344 0.188 0.425 1.2 0.488 2.4 0.012 3.6-0.056 0.15-0.094 0.256 0.044 0.387 0.769 0.725 1.131 1.65 1.281 2.669 0.181 1.238 0.288 2.481 0.144 3.738-0.238 2.113-1.313 3.65-3.175 4.656-0.069-0.006-0.125 0.012-0.15 0.081-0.050 0.025-0.1 0.050-0.144 0.069-0.163 0.006-0.3 0.075-0.413 0.181-0.050 0.019-0.106 0.031-0.156 0.050-0.075-0.019-0.125 0.012-0.156 0.075-0.031 0.006-0.069 0.019-0.1 0.025-0.25 0.038-0.5 0.069-0.712 0.219-0.031 0.006-0.069 0.012-0.1 0.019-0.181-0.006-0.363 0.006-0.519 0.119-0.137 0.019-0.269 0.038-0.406 0.056-0.106 0.006-0.225-0.006-0.319 0.031-0.1 0.044-0.056 0.106 0.031 0.131l0.006 0.006c0.006 0.087 0.050 0.15 0.131 0.175 0.050 0.1 0.1 0.2 0.15 0.294 0.012 0.131 0.038 0.256 0.15 0.344 0.012 0.056 0.025 0.106 0.038 0.163 0.031 0.175 0.031 0.35 0.131 0.506 0.006 0.038 0.012 0.075 0.019 0.106-0.038 0.075-0.019 0.144 0.038 0.206-0.006 0.069-0.006 0.131 0 0.194z"></path>
<path fill="#989393" style="fill: var(--color1, #989393)" d="M19.975 23.656c0.212-0.156 0.462-0.181 0.712-0.219-0.231 0.094-0.444 0.244-0.712 0.219z"></path>
<path fill="#989393" style="fill: var(--color1, #989393)" d="M19.356 23.794c0.156-0.113 0.337-0.119 0.519-0.119-0.15 0.125-0.331 0.137-0.519 0.119z"></path>
<path fill="#989393" style="fill: var(--color1, #989393)" d="M19.269 25.5c-0.106-0.15-0.106-0.331-0.131-0.506 0.131 0.144 0.181 0.313 0.131 0.506z"></path>
<path fill="#989393" style="fill: var(--color1, #989393)" d="M21.1 23.275c0.119-0.106 0.25-0.181 0.413-0.181-0.113 0.119-0.244 0.194-0.413 0.181z"></path>
<path fill="#989393" style="fill: var(--color1, #989393)" d="M18.669 24.012c-0.094-0.025-0.131-0.087-0.031-0.131 0.094-0.038 0.212-0.025 0.319-0.031-0.069 0.106-0.25 0.012-0.288 0.163z"></path>
<path fill="#989393" style="fill: var(--color1, #989393)" d="M19.1 24.831c-0.113-0.087-0.137-0.212-0.15-0.344 0.131 0.081 0.137 0.212 0.15 0.344z"></path>
<path fill="#989393" style="fill: var(--color1, #989393)" d="M19.325 25.813c-0.056-0.063-0.069-0.125-0.038-0.206 0.075 0.056 0.1 0.125 0.038 0.206z"></path>
<path fill="#989393" style="fill: var(--color1, #989393)" d="M12.481 28.856c0.050-0.087 0.119-0.087 0.206-0.056-0.056 0.063-0.119 0.094-0.206 0.056z"></path>
<path fill="#989393" style="fill: var(--color1, #989393)" d="M18.806 24.194c-0.087-0.025-0.125-0.087-0.131-0.175 0.094 0.019 0.137 0.081 0.131 0.175z"></path>
<path fill="#989393" style="fill: var(--color1, #989393)" d="M21.663 23.025c0.025-0.069 0.087-0.087 0.15-0.081-0.019 0.075-0.063 0.125-0.15 0.081z"></path>
<path fill="#989393" style="fill: var(--color1, #989393)" d="M20.788 23.406c0.031-0.069 0.081-0.094 0.156-0.075-0.025 0.069-0.069 0.113-0.156 0.075z"></path>
</symbol>
<symbol id="icon-home" viewBox="0 0 32 32">
<path d="M30.633 11.592l-9.448-9.448c-2.866-2.859-7.505-2.859-10.371 0l-9.448 9.448c-0.878 0.873-1.37 2.062-1.367 3.3v13.837c0.003 1.806 1.467 3.269 3.273 3.271h25.453c1.806-0.001 3.27-1.465 3.273-3.271v-13.837c0.003-1.238-0.489-2.427-1.367-3.3zM28 28h-6.667v-4.243c0-2.811-2.279-5.091-5.091-5.091 0 0 0 0 0 0h-0.485c-2.812 0-5.091 2.279-5.091 5.091v0 4.243h-6.667v-13.108c0-0.177 0.070-0.346 0.195-0.472l9.448-9.448c1.302-1.302 3.412-1.302 4.714-0.001 0 0 0 0 0.001 0.001l9.448 9.448c0.124 0.126 0.194 0.295 0.195 0.472v13.108z"></path>
</symbol>

<symbol id="icon-web" viewBox="0 0 32 32">
<path d="M25.333 2.667h-12c-3.68 0-6.667 2.987-6.667 6.667v8c0 3.68 2.987 6.667 6.667 6.667h12c3.68 0 6.667-2.987 6.667-6.667v-8c0-3.68-2.987-6.667-6.667-6.667zM13.333 5.333h12c1.733 0 3.2 1.12 3.76 2.667h-19.52c0.547-1.547 2.013-2.667 3.76-2.667zM25.333 21.333h-12c-2.2 0-4-1.8-4-4v-6.667h20v6.667c0 2.2-1.8 4-4 4zM22.667 28c0 0.733-0.6 1.333-1.333 1.333h-14.667c-3.68 0-6.667-2.987-6.667-6.667v-9.8c0-1.627 0.587-3.187 1.667-4.413 0.493-0.547 1.333-0.6 1.88-0.12 0.56 0.493 0.6 1.333 0.12 1.88-0.64 0.733-1 1.667-1 2.64v9.8c0 2.2 1.8 4 4 4h14.667c0.733 0 1.333 0.6 1.333 1.333z"></path>
</symbol>
<symbol id="logo-goit" viewBox="0 0 100 32">
<path fill="#ff6b0a" style="fill: var(--color1, #ff6b0a)" d="M43.846 1.104h-43.846v30h43.846l11.538-15-11.538-15zM19.657 14.075c-0.068-0.055-0.135-0.109-0.202-0.163-0.169-0.137-0.335-0.271-0.506-0.4-0.466-0.356-0.972-0.639-1.553-0.765-0.641-0.14-1.288-0.191-1.928 0.003-0.912 0.276-1.547 0.876-1.967 1.713-0.348 0.696-0.441 1.434-0.35 2.201 0.073 0.601 0.266 1.158 0.621 1.652 0.545 0.759 1.288 1.198 2.217 1.314 0.836 0.105 1.646 0 2.413-0.366 0.262-0.125 0.262-0.128 0.262-0.417v-0.005c0-0.070 0-0.141 0-0.211v-0c0-0.14 0.001-0.28-0-0.42-0-0.028 0-0.052 0-0.073 0.001-0.058 0.001-0.088-0.013-0.104s-0.048-0.016-0.116-0.015c-0.017 0-0.036 0-0.057 0h-2.431c-0.022 0-0.041 0-0.058 0h-0c-0.068 0.001-0.101 0.001-0.117-0.015s-0.014-0.046-0.013-0.105c0-0.020 0.001-0.043 0.001-0.070-0.001-0.647-0.001-1.294-0-1.94v-0.005c0-0.322 0-0.643 0-0.965l0-0.016 0.001-0.019c0.001-0.024 0.001-0.049-0.001-0.072-0.005-0.057 0.015-0.088 0.078-0.082 0.024 0.002 0.048 0.001 0.073 0.001h0c0.012-0 0.024-0.001 0.036-0.001h6.146c0.040 0 0.074 0.008 0.068 0.059-0.003 0.031 0.017 0.051 0.036 0.072 0.024 0.025 0.049 0.052 0.035 0.097-0.012 0.039-0.009 0.082-0.006 0.125v0c0.001 0.019 0.003 0.039 0.003 0.058l-0 1.105c-0 1.474-0 2.948 0.003 4.422 0 0.12-0.037 0.196-0.128 0.271-1.144 0.947-2.431 1.609-3.887 1.937-0.861 0.194-1.733 0.248-2.614 0.177-1.041-0.083-2.030-0.349-2.944-0.855-1.677-0.927-2.733-2.335-3.219-4.172-0.214-0.812-0.279-1.639-0.211-2.473 0.255-3.095 2.433-5.51 5.35-6.182 0.833-0.193 1.674-0.22 2.522-0.163 0.65 0.045 1.29 0.146 1.916 0.331 0.937 0.279 1.764 0.759 2.516 1.375 0.088 0.072 0.175 0.145 0.26 0.219 0.108 0.092 0.111 0.145 0.017 0.259-0.474 0.57-0.948 1.138-1.423 1.706-0.237 0.285-0.474 0.57-0.712 0.853l-0.009 0.012-0.009 0.012c-0.026 0.035-0.054 0.073-0.099 0.1zM31.752 9.181c1.764 0.014 3.47 0.634 4.902 1.937 1.112 1.013 1.793 2.276 2.066 3.75 0.303 1.64 0.085 3.211-0.729 4.675-0.966 1.737-2.44 2.851-4.364 3.354-1.655 0.434-3.297 0.346-4.881-0.311-2.063-0.858-3.396-2.398-4.021-4.514-0.559-1.893-0.356-3.733 0.644-5.449 0.974-1.672 2.44-2.72 4.314-3.208 0.646-0.168 1.254-0.234 2.069-0.236zM31.333 12.703c-0.968 0.022-1.965 0.573-2.589 1.723-0.424 0.781-0.523 1.623-0.362 2.493 0.127 0.687 0.426 1.295 0.921 1.794 0.773 0.779 1.719 1.086 2.803 0.961 1.121-0.128 1.954-0.701 2.488-1.685 0.454-0.838 0.548-1.734 0.336-2.657-0.35-1.531-1.634-2.635-3.597-2.63z"></path>
<path fill="#010101" style="fill: var(--color2, #010101)" d="M99.231 1.104v30h-43.846v-30h43.846zM69.769 9.364v13.056c0 0.014 0 0.028 0.001 0.042v0c0.001 0.028 0.001 0.055-0.001 0.081-0.006 0.076 0.014 0.12 0.101 0.108 0.021-0.002 0.041-0.001 0.062-0.001 0.010 0 0.021 0.001 0.031 0.001 0.366 0 0.731 0 1.097 0h0.003c0.732 0 1.464 0.001 2.196-0 0.023 0 0.043 0 0.062 0 0.070 0.001 0.105 0.001 0.121-0.016s0.015-0.048 0.013-0.109v-0c-0.001-0.021-0.001-0.045-0.001-0.073v-13.072c0-0.010-0-0.021-0.001-0.031-0.001-0.021-0.001-0.041 0.001-0.062 0.008-0.077-0.019-0.117-0.102-0.108-0.016 0.002-0.034 0.001-0.051 0.001l-0.006-0c-0.007-0-0.014-0-0.020-0-0.369 0-0.739-0-1.109-0h-0c-0.74-0-1.48-0.001-2.219 0-0.022 0-0.041-0-0.058-0.001h-0c-0.061-0.001-0.091-0.001-0.107 0.014s-0.015 0.046-0.014 0.108c0 0.017 0.001 0.037 0.001 0.060zM88.124 9.183h-5.497c-1.832 0-3.664 0-5.494-0.002-0.007 0-0.015 0-0.022 0-0.006 0-0.013 0-0.019 0-0.027 0-0.055 0.001-0.082-0-0.062-0.003-0.084 0.026-0.079 0.083 0.001 0.017 0.001 0.034 0 0.051-0 0.009-0 0.017-0 0.026v3.126l-0 0.032c-0 0.067-0 0.1 0.016 0.116s0.048 0.015 0.11 0.015l0.043-0h3.453c0.113 0 0.168 0 0.196 0.028s0.027 0.081 0.027 0.188v9.639c0 0.018-0 0.035-0.001 0.049v0c-0.001 0.055-0.001 0.084 0.013 0.099 0.016 0.017 0.049 0.016 0.119 0.016l0.034-0h3.314c0.104 0 0.155 0 0.181-0.026s0.025-0.075 0.025-0.174v-9.639c0-0.021-0-0.039-0.001-0.056v-0c-0.001-0.059-0.001-0.091 0.014-0.107 0.016-0.017 0.052-0.017 0.125-0.017l0.046 0h3.515c0.152 0 0.152 0 0.153-0.149v-3.111c0-0.021 0-0.040 0-0.057v-0c0.001-0.068 0.001-0.101-0.015-0.118s-0.049-0.016-0.115-0.015h-0c-0.017 0-0.037 0.001-0.059 0.001z"></path>
</symbol>
<symbol id="trezub" viewBox="0 0 20 32">
<path fill="#f2cd13" style="fill: var(--color3, #f2cd13)" d="M17.874 2.977c-5.057 4.907-4.279 12.541-4.244 12.868l0.071 0.618 0.601 0.073c0.177 0.036 1.202 0.254 1.061 1.89-0.106 1.418-1.662 1.636-2.299 1.709-0.531-0.727-2.264-3.744-2.44-12.396 0-0.436 0-0.872 0-1.309 0 0 0.141-3.090 0.283-4.398l-1.026-2.254-1.061 2.181c0.141 1.309 0.283 4.398 0.283 4.398 0 0.436 0 0.872 0 1.309-0.177 8.651-1.91 11.705-2.44 12.396-0.672-0.036-2.193-0.291-2.299-1.709-0.141-1.636 0.884-1.854 1.061-1.89l0.601-0.073 0.071-0.618c0.035-0.327 0.813-7.961-4.244-12.868l-1.238-1.127v23.519h5.128c0.424 3.453 3.501 6.034 3.643 6.143l0.46 0.4 0.46-0.4c0.141-0.109 3.254-2.69 3.643-6.143h5.128v-23.519l-1.202 1.2zM4.683 15.154c-0.743 0.291-1.627 1.054-1.768 2.508h-0.813v-12.141c2.582 3.562 2.617 8.106 2.582 9.633zM5.638 23.042l0.035 0.727h-3.572v-4.617h0.92c0.389 1.454 1.662 2.072 2.829 2.326-0.212 0.727-0.212 1.454-0.212 1.563zM7.123 23.006c0-0.4 0.035-0.981 0.212-1.345 1.309 0.291 1.662 1.381 1.768 2.145h-1.945l-0.035-0.8zM9.139 29.040c-0.743-0.909-1.627-2.217-1.874-3.744h1.874v3.744zM10.058 21.37c-0.071 0.073-0.141 0.182-0.212 0.291-0.071-0.109-0.141-0.182-0.212-0.291-0.389-0.436-0.849-0.8-1.379-1.018 0.495-0.872 1.096-2.326 1.591-4.762 0.495 2.435 1.096 3.926 1.591 4.762-0.531 0.218-0.99 0.545-1.379 1.018zM10.589 29.004v-3.708h1.874c-0.212 1.49-1.096 2.799-1.874 3.708zM12.605 23.006l-0.035 0.763h-1.945c0.106-0.763 0.46-1.854 1.768-2.145 0.177 0.4 0.212 0.981 0.212 1.381zM15.045 15.154c-0.071-1.49 0-6.034 2.582-9.633v12.141h-0.813c-0.141-1.49-0.99-2.217-1.768-2.508zM14.055 23.769l0.035-0.727c0-0.109 0.035-0.836-0.177-1.563 1.132-0.218 2.405-0.872 2.829-2.326h0.919v4.617h-3.607z"></path>
</symbol>

<symbol id="icon-instagram" viewBox="0 0 34 32">
<path d="M29.152 22.608c0 2-0.581 3.611-1.741 4.707-1.163 1.098-2.774 1.68-4.71 1.68h-13.162c-1.936 0-3.549-0.582-4.71-1.68-1.16-1.16-1.744-2.773-1.744-4.773v-13.227c0-1.936 5.222-8.192 6.382-9.354-5.608 0.003-9.347 3.744-9.347 9.354v13.226c0 2.774 0.902 5.163 2.709 6.904 1.742 1.677 4.064 2.517 6.71 2.517h13.162c2.773 0 5.096-0.904 6.773-2.517 1.742-1.677 2.647-4.064 2.647-6.838v-13.291c0-2.709-0.904-5.032-2.581-6.709-1.677-1.742-4.067-2.645-6.774-2.645h-13.293l-4.643 4.646c1.098-1.098 2.774-1.678 4.71-1.678h13.29c1.936 0 3.549 0.581 4.71 1.744 1.098 1.16 1.741 2.773 1.741 4.643v13.291h-0.128zM24.571 9.509c0.25 0.007 0.499-0.036 0.732-0.126s0.446-0.227 0.625-0.402c0.18-0.174 0.322-0.383 0.42-0.613s0.148-0.478 0.148-0.728-0.050-0.498-0.148-0.728c-0.098-0.23-0.24-0.439-0.42-0.613s-0.392-0.311-0.625-0.402c-0.233-0.091-0.482-0.134-0.732-0.126-0.486 0.014-0.948 0.217-1.287 0.567s-0.529 0.816-0.529 1.303 0.19 0.954 0.529 1.303c0.339 0.349 0.801 0.552 1.287 0.566v0zM16.12 21.253c-1.401-0.006-2.744-0.566-3.735-1.557s-1.55-2.333-1.557-3.734c0.006-1.401 0.566-2.744 1.557-3.734s2.333-1.55 3.735-1.557c1.401 0.006 2.744 0.566 3.734 1.557s1.55 2.333 1.557 3.734c-0.007 1.401-0.567 2.743-1.557 3.733s-2.333 1.55-3.734 1.556v0.002zM16.12 7.704c-4.515 0-8.258 3.677-8.258 8.258-0.003 1.085 0.209 2.16 0.623 3.164s1.022 1.915 1.789 2.682c0.767 0.767 1.679 1.376 2.682 1.789s2.078 0.625 3.164 0.623c4.581 0 8.256-3.742 8.256-8.256 0-4.518-3.741-8.259-8.256-8.259v0z"></path>
</symbol>
<symbol id="icon-basket" viewBox="0 0 24 32">
<path d="M12.202 3.689c-1.639 0-3.21 0.651-4.369 1.809s-1.809 2.73-1.809 4.369h-2.667c0-2.346 0.932-4.595 2.591-6.254s3.908-2.591 6.254-2.591c2.346 0 4.595 0.932 6.254 2.591s2.591 3.908 2.591 6.254h-2.667c0-1.639-0.651-3.21-1.809-4.369s-2.73-1.809-4.368-1.809zM1.025 9.615h22.353v22.353h-22.353v-22.353zM3.692 12.281v17.020h17.020v-17.020h-17.020z"></path>
</symbol>
<symbol id="icon-search" viewBox="0 0 32 32">
<path d="M7.254 7.271c1.963-1.963 4.626-3.066 7.402-3.066s5.439 1.103 7.402 3.066 3.066 4.626 3.066 7.402c0 2.776-1.103 5.439-3.066 7.402s-4.626 3.066-7.402 3.066c-2.776 0-5.439-1.103-7.402-3.066s-3.066-4.626-3.066-7.402c0-2.776 1.103-5.439 3.066-7.402zM14.656 1.296c-3.548 0-6.95 1.409-9.459 3.918s-3.918 5.911-3.918 9.459c0 3.548 1.409 6.951 3.918 9.459s5.911 3.918 9.459 3.918c3.060 0 6.012-1.048 8.376-2.946l6.434 6.434 2.057-2.057-6.435-6.435c1.897-2.363 2.945-5.315 2.945-8.374 0-3.548-1.409-6.951-3.918-9.459s-5.911-3.918-9.459-3.918z"></path>
</symbol>

<symbol id="circle-1" viewBox="0 0 32 32">
<path fill="#21f7ec" style="fill: var(--color6, #21f7ec)" d="M16 0c8.837 0 16 7.163 16 16s-7.163 16-16 16c-8.837 0-16-7.163-16-16s7.163-16 16-16z"></path>
</symbol>
<symbol id="circle-2" viewBox="0 0 32 32">
<path fill="#33d3bc" style="fill: var(--color5, #33d3bc)" d="M16 0c8.837 0 16 7.163 16 16s-7.163 16-16 16c-8.837 0-16-7.163-16-16s7.163-16 16-16z"></path>
</symbol>
<symbol id="circle-3" viewBox="0 0 32 32">
<path fill="#18a5c6" style="fill: var(--color4, #18a5c6)" d="M16 0c8.837 0 16 7.163 16 16s-7.163 16-16 16c-8.837 0-16-7.163-16-16s7.163-16 16-16z"></path>
</symbol>
<symbol id="circle-4" viewBox="0 0 32 32">
<path fill="#d38f62" style="fill: var(--color3, #d38f62)" d="M16 0c8.837 0 16 7.163 16 16s-7.163 16-16 16c-8.837 0-16-7.163-16-16s7.163-16 16-16z"></path>
</symbol>
<symbol id="circle-5" viewBox="0 0 32 32">
<path fill="#f94c43" style="fill: var(--color2, #f94c43)" d="M16 0c8.837 0 16 7.163 16 16s-7.163 16-16 16c-8.837 0-16-7.163-16-16s7.163-16 16-16z"></path>
</symbol>
<symbol id="circle-6" viewBox="0 0 32 32">
<path fill="#d399ff" style="fill: var(--color1, #d399ff)" d="M16 0c8.837 0 16 7.163 16 16s-7.163 16-16 16c-8.837 0-16-7.163-16-16s7.163-16 16-16z"></path>
</symbol>

<symbol id="logo-footer" viewBox="0 0 101 32">
<path fill="#fcfcfa" style="fill: var(--color2, #fcfcfa)" d="M73.561 25.936c-2.477 0-4.407-1.020-5.646-2.878v2.513h-5.137v-25.053h5.137v9.679c1.239-1.858 3.169-2.878 5.647-2.878 4.627 0 8.307 4.154 8.307 9.29s-3.68 9.327-8.307 9.327l-0.001 0.001zM72.396 12.201c-2.514 0-4.481 1.93-4.481 4.407 0 2.515 1.967 4.408 4.48 4.408 2.479 0 4.482-1.93 4.482-4.408 0-2.441-2.004-4.407-4.482-4.407v0z"></path>
<path fill="#fcfcfa" style="fill: var(--color2, #fcfcfa)" d="M99.963 7.682l-9.947 23.828h-5.501l3.315-7.396-6.885-16.432h5.538l3.971 10.456 3.973-10.456h5.537z"></path>
<path fill="#fcfcfa" style="fill: var(--color2, #fcfcfa)" d="M60.406 25.571h-5.137v-25.054h5.137v25.054z"></path>
<path fill="#fcfcfa" style="fill: var(--color2, #fcfcfa)" d="M53.225 25.571h-4.845v-2.222c-1.057 1.748-2.733 2.587-5.1 2.587-3.17 0-5.538-2.368-5.538-5.356 0-3.753 3.316-5.721 8.343-5.721h2.295v-0.4c0-1.603-1.384-2.952-3.424-2.952-1.931 0-3.825 1.058-4.809 2.296l-2.805-2.988c1.566-2.041 4.627-3.498 7.614-3.498 5.065 0 8.27 2.952 8.27 7.251v11.003zM48.379 18.066h-2.551c-2.259 0-3.607 0.692-3.607 2.040 0 1.093 0.874 1.822 2.259 1.822 2.259 0 3.899-1.53 3.899-3.316v-0.546z"></path>
<path fill="#fcfcfa" style="fill: var(--color2, #fcfcfa)" d="M35.916 15.443v10.128h-5.137v-9.473c0-2.331-1.421-3.862-3.534-3.862-2.149 0-3.534 1.531-3.534 3.862v9.473h-5.137v-25.054h5.137v9.497c1.129-1.712 2.805-2.697 4.847-2.697 4.589 0 7.358 3.061 7.358 8.125v0z"></path>
<path fill="#fcfcfa" style="fill: var(--color2, #fcfcfa)" d="M16.554 25.353c-0.656 0.328-1.677 0.51-2.624 0.51-4.19 0-7.141-2.66-7.141-7.287v-18.058h5.137v7.165h4.408v4.882h-4.408v5.756c0 1.677 1.275 2.733 2.768 2.733 0.51 0 1.203-0.108 1.603-0.254l0.256 4.554z"></path>
<path fill="#cc3" style="fill: var(--color3, #cc3)" d="M5.803 10.123c0 0.368-0.072 0.733-0.213 1.074s-0.348 0.65-0.608 0.91c-0.261 0.261-0.57 0.467-0.91 0.608s-0.705 0.214-1.074 0.214c-0.368 0-0.733-0.072-1.074-0.213s-0.65-0.348-0.91-0.608c-0.261-0.261-0.467-0.57-0.608-0.91s-0.214-0.705-0.214-1.074c0-0.744 0.296-1.458 0.822-1.984s1.24-0.822 1.984-0.822c0.744 0 1.458 0.296 1.984 0.822s0.822 1.24 0.822 1.984v-0.001z"></path>
</symbol>
<symbol id="facebook" viewBox="0 0 32 32">
<path fill="#fff" style="fill: var(--color1, #fff)" d="M20.102 32v-14.596h6.893l1.034-5.69h-7.925v-3.633c0-1.645 0.639-2.767 3.965-2.767h4.238v-5.092c-0.733-0.068-3.248-0.222-6.176-0.222-6.114 0-10.297 2.65-10.297 7.518v4.198h-6.911v5.688h6.911v14.596h8.268z"></path>
</symbol>
<symbol id="twitter" viewBox="0 0 32 32">
<path fill="#fff" style="fill: var(--color1, #fff)" d="M32 3.787c-1.175 0.646-2.443 1.077-3.768 1.269 1.356-1 2.393-2.584 2.887-4.468-1.269 0.923-2.675 1.6-4.168 1.961-1.2-1.569-2.906-2.546-4.793-2.546-3.624 0-6.561 3.615-6.561 8.075 0 0.631 0.056 1.246 0.168 1.838-5.455-0.338-10.292-3.553-13.529-8.445-0.562 1.192-0.887 2.584-0.887 4.061 0 2.799 1.156 5.276 2.918 6.722-1.075-0.039-2.087-0.408-2.974-1.008v0.1c0 3.915 2.262 7.183 5.268 7.921-0.55 0.185-1.131 0.285-1.731 0.285-0.425 0-0.831-0.054-1.237-0.146 0.837 3.207 3.262 5.545 6.13 5.614-2.249 2.169-5.074 3.461-8.155 3.461-0.531 0-1.050-0.039-1.568-0.115 2.912 2.3 6.361 3.63 10.067 3.63 12.073 0 18.678-12.313 18.678-22.988 0-0.354-0.006-0.7-0.019-1.046 1.281-1.13 2.393-2.553 3.274-4.176z"></path>
</symbol>

<symbol id="frispes_instagramm" viewBox="0 0 32 32">
<path fill="#fff" style="fill: var(--color1, #fff)" d="M0 16c0-6.706 0-10.059 1.681-12.373 0.543-0.747 1.2-1.404 1.947-1.947 2.313-1.681 5.666-1.681 12.373-1.681s10.059 0 12.372 1.681c0.747 0.543 1.404 1.2 1.947 1.947 1.681 2.313 1.681 5.666 1.681 12.373s0 10.059-1.681 12.372c-0.543 0.747-1.2 1.404-1.947 1.947-2.313 1.681-5.666 1.681-12.372 1.681s-10.059 0-12.373-1.681c-0.747-0.543-1.404-1.2-1.947-1.947-1.681-2.313-1.681-5.666-1.681-12.372zM16 7.529c-4.678 0-8.471 3.793-8.471 8.471s3.793 8.471 8.471 8.471c4.678 0 8.471-3.793 8.471-8.471s-3.793-8.471-8.471-8.471zM16 21.294c2.918 0 5.294-2.376 5.294-5.294 0-2.92-2.376-5.294-5.294-5.294s-5.294 2.374-5.294 5.294c0 2.918 2.376 5.294 5.294 5.294zM26.235 6.894c0-0.623-0.505-1.129-1.129-1.129s-1.129 0.505-1.129 1.129c0 0.623 0.505 1.129 1.129 1.129s1.129-0.505 1.129-1.129z"></path>
</symbol>
<symbol id="frispes_youtube" viewBox="0 0 43 32">
<path fill="#fff" style="fill: var(--color1, #fff)" d="M38.027 1.981c-3.339-0.914-16.694-0.914-16.694-0.914s-13.355 0-16.694 0.879c-1.792 0.492-3.269 1.968-3.76 3.796-0.879 3.339-0.879 10.262-0.879 10.262s0 6.959 0.879 10.262c0.492 1.827 1.933 3.268 3.761 3.761 3.374 0.914 16.694 0.914 16.694 0.914s13.355 0 16.694-0.879c1.828-0.492 3.268-1.933 3.761-3.76 0.879-3.339 0.879-10.262 0.879-10.262s0.035-6.959-0.879-10.297c-0.492-1.828-1.933-3.269-3.76-3.761zM28.186 16.004l-11.106 6.396v-12.793l11.106 6.396z"></path>
</symbol>
<symbol id="frispes_facebook" viewBox="0 0 17 32">
<path fill="#fff" style="fill: var(--color1, #fff)" d="M16.819 0.007l-4.040-0.007c-4.538 0-7.471 3.091-7.471 7.875v3.631h-4.062c-0.351 0-0.635 0.292-0.635 0.653v5.261c0 0.36 0.285 0.652 0.635 0.652h4.062v13.275c0 0.361 0.284 0.652 0.635 0.652h5.299c0.351 0 0.635-0.292 0.635-0.652v-13.275h4.749c0.351 0 0.635-0.292 0.635-0.652l0.002-5.261c0-0.173-0.067-0.339-0.186-0.461s-0.281-0.191-0.45-0.191h-4.751v-3.078c0-1.479 0.343-2.23 2.219-2.23l2.721-0.001c0.351 0 0.635-0.292 0.635-0.652v-4.885c0-0.36-0.284-0.652-0.634-0.652z"></path>
</symbol>
<symbol id="chevron" viewBox="0 0 32 32">
<path fill="#ff5722" style="fill: var(--color1, #ff5722)" d="M20.533 15.993c0 0.293-0.107 0.56-0.32 0.773l-6.933 6.667c-0.427 0.4-1.093 0.4-1.52-0.027-0.4-0.427-0.4-1.093 0.027-1.52l6.133-5.893-6.133-5.893c-0.427-0.4-0.427-1.093-0.027-1.52s1.093-0.427 1.52-0.027l6.933 6.667c0.213 0.213 0.32 0.48 0.32 0.773z"></path>
</symbol>
<symbol id="meetingroom" viewBox="0 0 32 32">
<path fill="#10375c" style="fill: var(--color1, #10375c)" d="M28.25 7.5c2.068 0 3.75-1.682 3.75-3.75s-1.682-3.75-3.75-3.75c-2.068 0-3.75 1.682-3.75 3.75s1.682 3.75 3.75 3.75zM28.25 2.5c0.689 0 1.25 0.561 1.25 1.25s-0.561 1.25-1.25 1.25c-0.689 0-1.25-0.561-1.25-1.25s0.561-1.25 1.25-1.25zM3.75 7.5c2.068 0 3.75-1.682 3.75-3.75s-1.682-3.75-3.75-3.75c-2.068 0-3.75 1.682-3.75 3.75s1.682 3.75 3.75 3.75zM3.75 2.5c0.689 0 1.25 0.561 1.25 1.25s-0.561 1.25-1.25 1.25c-0.689 0-1.25-0.561-1.25-1.25s0.561-1.25 1.25-1.25zM28.27 8.688c-0.006 0-0.012 0-0.018 0-2.587 0-3.568 1.884-4.186 3.728-0.21 0.627-0.666 1.998-0.966 2.897h-1.474v-2.875c0-2.068-1.682-3.75-3.75-3.75h-3.75c-2.068 0-3.75 1.682-3.75 3.75v2.875h-1.474c-0.3-0.9-0.756-2.27-0.966-2.897-0.618-1.844-1.599-3.728-4.187-3.728-0.006 0-0.012 0-0.019 0-2.057 0.007-3.73 1.69-3.73 3.75v6.813c0 1.63 1.045 3.019 2.5 3.535v0.028c0.032 0 0.064 0.002 0.095 0.005 0.139 0.045 0.282 0.082 0.427 0.111 0.428 0.198 0.727 0.631 0.727 1.134v7.938h2.5v-7.938c0-0.369-0.054-0.725-0.154-1.063h1.467c0.689 0 1.25 0.561 1.25 1.25v7.75h2.5v-7.75c0-2.068-1.682-3.75-3.75-3.75h-3.813c-0.032 0-0.064-0.002-0.095-0.005-0.139-0.045-0.282-0.082-0.428-0.111-0.428-0.198-0.727-0.631-0.727-1.134v-6.813c0-0.687 0.556-1.248 1.239-1.25 0.565-0.002 1.146-0.004 1.826 2.022 0.325 0.969 1.24 3.72 1.249 3.747l0.284 0.855h17.803l0.284-0.855c0.009-0.028 0.925-2.779 1.249-3.747 0.679-2.026 1.261-2.023 1.826-2.022 0.683 0.002 1.239 0.563 1.239 1.25v6.813c0 0.502-0.299 0.936-0.727 1.134-0.146 0.029-0.288 0.066-0.427 0.111-0.032 0.003-0.063 0.005-0.096 0.005h-3.75c-2.068 0-3.75 1.682-3.75 3.75v7.75h2.5v-7.75c0-0.689 0.561-1.25 1.25-1.25h1.404c-0.1 0.337-0.154 0.694-0.154 1.063v7.938h2.5v-7.938c0-0.502 0.299-0.936 0.727-1.134 0.146-0.029 0.288-0.066 0.427-0.111 0.032-0.003 0.063-0.005 0.096-0.005v-0.028c1.455-0.516 2.5-1.905 2.5-3.535v-6.813c0-2.061-1.673-3.743-3.73-3.75zM12.875 12.438c0-0.689 0.561-1.25 1.25-1.25h3.75c0.689 0 1.25 0.561 1.25 1.25v2.875h-6.25v-2.875zM16 7.5c2.068 0 3.75-1.682 3.75-3.75s-1.682-3.75-3.75-3.75c-2.068 0-3.75 1.682-3.75 3.75s1.682 3.75 3.75 3.75zM16 2.5c0.689 0 1.25 0.561 1.25 1.25s-0.561 1.25-1.25 1.25c-0.689 0-1.25-0.561-1.25-1.25s0.561-1.25 1.25-1.25z"></path>
</symbol>
<symbol id="eventspace" viewBox="0 0 32 32">
<path fill="#10375c" style="fill: var(--color1, #10375c)" d="M30.282 29.791v-8.942c1.036-0.863 1.697-2.162 1.697-3.612v-2.118l-15.041-8.371v-1.207h5.414v-5.208h-7.289v6.415l-15.063 8.37v2.118c0 1.461 0.67 2.768 1.719 3.631v8.924h-1.718v1.875h31.999v-1.875h-1.718zM16.938 2.209h3.539v1.458h-3.539v-1.458zM29.257 15.75h-5.094l-4.663-5.43 9.757 5.43zM16.927 10.201l4.765 5.549h-4.765v-5.549zM22.551 17.625c-0.19 1.375-1.373 2.437-2.799 2.437s-2.609-1.062-2.799-2.437h5.598zM10.305 15.75l4.747-5.544v5.544h-4.747zM15.025 17.625c-0.19 1.375-1.373 2.437-2.799 2.437s-2.609-1.062-2.799-2.437h5.598zM12.478 10.33l-4.641 5.42h-5.113l9.754-5.42zM1.902 17.625h5.598c-0.19 1.375-1.373 2.437-2.799 2.437s-2.609-1.062-2.799-2.437zM7.599 29.791h-4.005v-7.987c0.355 0.086 0.726 0.133 1.107 0.133 1.537 0 2.905-0.742 3.763-1.887 0.858 1.145 2.225 1.887 3.763 1.887 0.973 0 1.877-0.297 2.628-0.805-0.223 1.132-0.621 2.228-1.183 3.24-0.911 1.639-2.233 3.030-3.826 4.021l-2.246 1.398zM11.136 29.791c1.728-1.143 3.167-2.695 4.174-4.508 0.261-0.469 0.491-0.954 0.69-1.45 0.2 0.496 0.43 0.981 0.69 1.45 1.007 1.813 2.446 3.365 4.174 4.508h-9.728zM28.407 29.791h-4.005l-2.246-1.398c-1.592-0.991-2.915-2.381-3.826-4.021-0.56-1.008-0.956-2.098-1.18-3.224 0.746 0.498 1.64 0.788 2.602 0.788 1.537 0 2.905-0.742 3.763-1.887 0.858 1.145 2.226 1.887 3.763 1.887 0.389 0 0.767-0.048 1.129-0.138v7.992zM27.278 20.062c-1.426 0-2.609-1.062-2.799-2.437h5.598c-0.19 1.375-1.372 2.437-2.799 2.437z"></path>
</symbol>
<symbol id="flag" viewBox="0 0 32 32">
<path fill="none" stroke="#262f56" style="stroke: var(--color2, #262f56)" stroke-linejoin="round" stroke-linecap="round" stroke-miterlimit="4" stroke-width="2.8571" d="M6.857 29.567v-13.72M6.857 29.567h2.286M6.857 29.567h-2.286M6.857 15.847v-13.72h20.571l-6.857 6.86 6.857 6.86h-20.571z"></path>
</symbol>
<symbol id="wifi" viewBox="0 0 32 32">
<path fill="#10375c" style="fill: var(--color1, #10375c)" d="M15.938 29.156c1.139 0 2.062-0.923 2.062-2.063s-0.924-2.063-2.063-2.063c-1.139 0-2.063 0.924-2.063 2.063s0.923 2.063 2.063 2.063z"></path>
<path fill="#10375c" style="fill: var(--color1, #10375c)" d="M22.072 20.018c-1.626-1.611-3.957-2.612-6.084-2.612-0 0-0.001 0-0.001 0h-0.090c-0 0-0.001 0-0.001 0-2.127 0-4.458 1.001-6.084 2.612-0.49 0.486-0.494 1.277-0.008 1.768 0.245 0.247 0.566 0.37 0.888 0.37 0.318 0 0.636-0.12 0.88-0.362 1.158-1.147 2.855-1.888 4.325-1.888 0 0 0 0 0.001 0h0.091c0 0 0 0 0.001 0 1.469 0 3.167 0.741 4.324 1.888 0.49 0.486 1.282 0.482 1.768-0.008s0.482-1.282-0.008-1.768z"></path>
<path fill="#10375c" style="fill: var(--color1, #10375c)" d="M31.664 9.679c-4.108-4.408-9.671-6.835-15.665-6.835s-11.556 2.428-15.664 6.835c-0.471 0.505-0.443 1.296 0.062 1.767s1.296 0.443 1.767-0.062c3.63-3.895 8.543-6.040 13.836-6.040s10.205 2.145 13.835 6.040c0.246 0.264 0.58 0.398 0.915 0.398 0.305 0 0.611-0.111 0.852-0.335 0.505-0.471 0.533-1.262 0.062-1.767z"></path>
<path fill="#10375c" style="fill: var(--color1, #10375c)" d="M27.075 14.841c-3.037-3.060-6.97-4.745-11.075-4.744s-8.039 1.685-11.075 4.745c-0.486 0.49-0.483 1.281 0.007 1.768s1.282 0.483 1.768-0.007c2.563-2.583 5.866-4.005 9.3-4.005s6.736 1.422 9.3 4.005c0.244 0.246 0.566 0.369 0.887 0.369 0.318 0 0.637-0.121 0.881-0.363 0.49-0.486 0.493-1.278 0.007-1.768z"></path>
</symbol>
<symbol id="User" viewBox="0 0 32 32">
<path fill="none" stroke="#10375c" style="stroke: var(--color1, #10375c)" stroke-linejoin="miter" stroke-linecap="butt" stroke-miterlimit="4" stroke-width="2.5" d="M21.333 8.667c0 3.314-2.388 6-5.333 6s-5.333-2.686-5.333-6c0-3.314 2.388-6 5.333-6s5.333 2.686 5.333 6z"></path>
<path fill="none" stroke="#10375c" style="stroke: var(--color1, #10375c)" stroke-linejoin="miter" stroke-linecap="butt" stroke-miterlimit="4" stroke-width="2.5" d="M26.667 25.333c0 4.667-5.333 3.333-10.667 3.333s-10.667 1.333-10.667-3.333c0-2.667 4.776-6 10.667-6s10.667 3.333 10.667 6z"></path>
</symbol>
<symbol id="Users" viewBox="0 0 32 32">
<path fill="none" stroke="#10375c" style="stroke: var(--color1, #10375c)" stroke-linejoin="round" stroke-linecap="round" stroke-miterlimit="4" stroke-width="2.5" d="M23.333 19.851c3.467 0.932 6 3.026 6 5.482 0 1.474-2.533 2.947-6 3.621"></path>
<path fill="none" stroke="#10375c" style="stroke: var(--color1, #10375c)" stroke-linejoin="round" stroke-linecap="round" stroke-miterlimit="4" stroke-width="2.5" d="M12 19.333c-5.333 0-9.333 2.667-9.333 6 0 2 4 4 9.333 4s9.333-2 9.333-4c0-3.333-4-6-9.333-6z"></path>
<path fill="none" stroke="#10375c" style="stroke: var(--color1, #10375c)" stroke-linejoin="round" stroke-linecap="round" stroke-miterlimit="4" stroke-width="2.5" d="M20 15.333c3.314 0 6-2.686 6-6s-2.686-6-6-6"></path>
<path fill="none" stroke="#10375c" style="stroke: var(--color1, #10375c)" stroke-linejoin="miter" stroke-linecap="butt" stroke-miterlimit="4" stroke-width="2.5" d="M18 9.333c0 3.314-2.686 6-6 6s-6-2.686-6-6c0-3.314 2.686-6 6-6s6 2.686 6 6z"></path>
</symbol>
<symbol id="lasles-logo" viewBox="0 0 32 32">
<path fill="#f53838" style="fill: var(--color1, #f53838)" d="M12.373 27.080c0.227 0.64-0.467 1.227-1.053 0.88l-4.2-2.387c-0.76-0.44-1.227-1.493-1.067-2.347l1.253-6.227c0.147-0.733 1.16-0.8 1.413-0.107l3.653 10.187z"></path>
<path fill="#f53838" style="fill: var(--color1, #f53838)" d="M24.88 25.573l-4.213 2.4c-0.587 0.333-1.28-0.24-1.053-0.88l3.667-10.28c0.253-0.693 1.267-0.627 1.413 0.107l1.267 6.307c0.147 0.853-0.32 1.907-1.080 2.347z"></path>
<path fill="#f53838" style="fill: var(--color1, #f53838)" d="M22.773 9.76c0.32 0.4 0.413 0.933 0.24 1.413l-6.32 17.667c-0.227 0.653-1.147 0.653-1.373 0l-6.32-17.653c-0.173-0.48-0.080-1.013 0.24-1.413l5.093-6.267c0.92-1.107 2.44-1.107 3.373 0l5.067 6.253z"></path>
</symbol>
<symbol id="user_red" viewBox="0 0 32 32">
<path fill="#f53838" style="fill: var(--color1, #f53838)" opacity="0.1" d="M16 0.421c8.604 0 15.579 6.975 15.579 15.579s-6.975 15.579-15.579 15.579c-8.604 0-15.579-6.975-15.579-15.579s6.975-15.579 15.579-15.579z"></path>
<path fill="#f53838" style="fill: var(--color1, #f53838)" d="M16 16c2.325 0 4.211-1.885 4.211-4.211s-1.885-4.211-4.211-4.211c-2.325 0-4.211 1.885-4.211 4.211s1.885 4.211 4.211 4.211z"></path>
<path fill="#f53838" style="fill: var(--color1, #f53838)" d="M16 18.105c-4.219 0-7.655 2.829-7.655 6.316 0 0.236 0.185 0.421 0.421 0.421h14.467c0.236 0 0.421-0.185 0.421-0.421 0-3.486-3.436-6.316-7.655-6.316z"></path>
</symbol>
<symbol id="location_red" viewBox="0 0 32 32">
<path fill="#f53838" style="fill: var(--color1, #f53838)" opacity="0.1" d="M16 0.421c8.604 0 15.579 6.975 15.579 15.579s-6.975 15.579-15.579 15.579c-8.604 0-15.579-6.975-15.579-15.579s6.975-15.579 15.579-15.579z"></path>
<path fill="#f53838" style="fill: var(--color1, #f53838)" d="M23.259 13.011c-0.884-3.891-4.278-5.642-7.259-5.642 0 0 0 0-0.008 0-2.973 0-6.375 1.743-7.259 5.634-0.985 4.345 1.676 8.025 4.084 10.341 0.893 0.859 2.038 1.288 3.183 1.288s2.291-0.429 3.175-1.288c2.408-2.316 5.069-5.987 4.084-10.333zM16 17.229c-1.465 0-2.653-1.187-2.653-2.653s1.187-2.653 2.653-2.653c1.465 0 2.653 1.187 2.653 2.653s-1.187 2.653-2.653 2.653z"></path>
</symbol>
<symbol id="server_red" viewBox="0 0 32 32">
<path fill="#f53838" style="fill: var(--color1, #f53838)" opacity="0.1" d="M16 0.421c8.604 0 15.579 6.975 15.579 15.579s-6.975 15.579-15.579 15.579c-8.604 0-15.579-6.975-15.579-15.579s6.975-15.579 15.579-15.579z"></path>
<path fill="#f53838" style="fill: var(--color1, #f53838)" d="M19.528 7.579h-7.057c-3.065 0-4.893 1.827-4.893 4.893v7.048c0 3.074 1.827 4.901 4.893 4.901h7.048c3.065 0 4.893-1.827 4.893-4.893v-7.057c0.008-3.065-1.819-4.893-4.884-4.893zM19.537 21.263c-0.952 0-1.726-0.775-1.726-1.726 0-0.556 0.269-1.044 0.682-1.364-0.354-0.926-1.238-1.566-2.232-1.533l-1.743 0.008c-0.514 0-1.002-0.152-1.415-0.413v1.701c0.64 0.253 1.095 0.876 1.095 1.6 0 0.952-0.775 1.726-1.726 1.726s-1.726-0.775-1.726-1.726c0-0.733 0.455-1.347 1.095-1.6v-3.663c-0.64-0.295-1.095-0.935-1.095-1.684 0-1.019 0.834-1.853 1.853-1.853s1.853 0.834 1.853 1.853c0 0.825-0.547 1.516-1.297 1.76 0.168 0.615 0.724 1.044 1.364 1.044 0 0 0 0 0.008 0l1.735-0.008c0.008 0 0.008 0 0.017 0 1.549 0 2.939 0.985 3.444 2.451 0.867 0.093 1.549 0.817 1.549 1.709-0.008 0.943-0.783 1.718-1.735 1.718z"></path>
</symbol>
<symbol id="circle" viewBox="0 0 32 32">
<path fill="#2bbc28" style="fill: var(--color1, #2bbc28)" d="M16 2.667c-7.347 0-13.333 5.987-13.333 13.333s5.987 13.333 13.333 13.333c7.347 0 13.333-5.987 13.333-13.333s-5.987-13.333-13.333-13.333zM22.373 12.933l-7.56 7.56c-0.187 0.187-0.44 0.293-0.707 0.293s-0.52-0.107-0.707-0.293l-3.773-3.773c-0.387-0.387-0.387-1.027 0-1.413s1.027-0.387 1.413 0l3.067 3.067 6.853-6.853c0.387-0.387 1.027-0.387 1.413 0s0.387 1.013 0 1.413z"></path>
</symbol>
<symbol id="facebook_red" viewBox="0 0 33 32">
<path fill="#f53838" style="fill: var(--color1, #f53838)" opacity="0.1" d="M16.432 0c8.837 0 16 7.163 16 16s-7.163 16-16 16c-8.837 0-16-7.163-16-16s7.163-16 16-16z"></path>
<path fill="#f53838" style="fill: var(--color1, #f53838)" d="M25.081 19.624c0 3.148-1.877 5.025-5.025 5.025h-1.029c-0.476 0-0.865-0.389-0.865-0.865v-4.99c0-0.233 0.19-0.432 0.424-0.432l1.522-0.026c0.121-0.009 0.225-0.095 0.251-0.216l0.303-1.652c0.026-0.156-0.095-0.303-0.259-0.303l-1.842 0.026c-0.242 0-0.432-0.19-0.441-0.424l-0.035-2.119c0-0.138 0.112-0.259 0.259-0.259l2.076-0.035c0.147 0 0.259-0.112 0.259-0.259l-0.035-2.076c0-0.147-0.112-0.259-0.259-0.259l-2.335 0.035c-1.436 0.026-2.577 1.202-2.551 2.638l0.043 2.378c0.009 0.242-0.182 0.432-0.424 0.441l-1.038 0.017c-0.147 0-0.259 0.112-0.259 0.259l0.026 1.643c0 0.147 0.112 0.259 0.259 0.259l1.038-0.017c0.242 0 0.432 0.19 0.441 0.424l0.078 4.93c0.009 0.484-0.381 0.882-0.865 0.882h-1.989c-3.148 0-5.025-1.877-5.025-5.034v-7.239c0-3.148 1.877-5.025 5.025-5.025h7.248c3.148 0 5.025 1.877 5.025 5.025v7.248z"></path>
</symbol>
<symbol id="watsapp_red" viewBox="0 0 33 32">
<path fill="#f53838" style="fill: var(--color1, #f53838)" opacity="0.1" d="M16.432 0c8.837 0 16 7.163 16 16s-7.163 16-16 16c-8.837 0-16-7.163-16-16s7.163-16 16-16z"></path>
<path fill="#f53838" style="fill: var(--color1, #f53838)" d="M25.064 15.49c-0.294-5.016-4.852-8.882-10.102-8.017-3.615 0.597-6.512 3.529-7.075 7.144-0.329 2.093 0.104 4.074 1.046 5.708l-0.77 2.863c-0.173 0.649 0.424 1.237 1.064 1.055l2.819-0.778c1.28 0.752 2.776 1.185 4.376 1.185 4.878 0 8.925-4.298 8.64-9.159zM20.653 19.217c-0.078 0.156-0.173 0.303-0.294 0.441-0.216 0.233-0.45 0.407-0.709 0.51-0.259 0.112-0.545 0.164-0.848 0.164-0.441 0-0.917-0.104-1.41-0.32-0.502-0.216-0.995-0.502-1.488-0.856-0.502-0.363-0.969-0.77-1.418-1.211-0.45-0.45-0.848-0.925-1.211-1.418-0.355-0.493-0.64-0.986-0.848-1.479s-0.311-0.969-0.311-1.418c0-0.294 0.052-0.579 0.156-0.839 0.104-0.268 0.268-0.51 0.502-0.726 0.277-0.277 0.579-0.406 0.899-0.406 0.121 0 0.242 0.026 0.355 0.078s0.216 0.13 0.294 0.242l1.003 1.418c0.078 0.112 0.138 0.208 0.173 0.303 0.043 0.095 0.061 0.182 0.061 0.268 0 0.104-0.035 0.208-0.095 0.311s-0.138 0.207-0.242 0.311l-0.329 0.346c-0.052 0.052-0.069 0.104-0.069 0.173 0 0.035 0.009 0.069 0.017 0.104 0.017 0.035 0.026 0.061 0.035 0.086 0.078 0.147 0.216 0.329 0.406 0.553 0.199 0.225 0.406 0.458 0.631 0.683 0.234 0.233 0.458 0.441 0.692 0.64 0.225 0.19 0.415 0.32 0.562 0.398 0.026 0.009 0.052 0.026 0.078 0.035 0.035 0.017 0.069 0.017 0.112 0.017 0.078 0 0.13-0.026 0.182-0.078l0.329-0.329c0.112-0.112 0.216-0.19 0.311-0.242 0.104-0.061 0.199-0.095 0.311-0.095 0.087 0 0.173 0.017 0.268 0.061s0.199 0.095 0.303 0.173l1.436 1.020c0.112 0.078 0.19 0.173 0.242 0.277 0.043 0.112 0.069 0.216 0.069 0.337-0.052 0.147-0.087 0.311-0.156 0.467z"></path>
</symbol>
<symbol id="youtube_red" viewBox="0 0 33 32">
<path fill="#f53838" style="fill: var(--color1, #f53838)" opacity="0.1" d="M16.432 0c8.837 0 16 7.163 16 16s-7.163 16-16 16c-8.837 0-16-7.163-16-16s7.163-16 16-16z"></path>
<path fill="#f53838" style="fill: var(--color1, #f53838)" d="M20.757 9.081h-8.649c-2.595 0-4.324 1.73-4.324 4.324v5.189c0 2.595 1.73 4.324 4.324 4.324h8.649c2.595 0 4.324-1.73 4.324-4.324v-5.189c0-2.595-1.73-4.324-4.324-4.324zM18.067 16.891l-2.136 1.28c-0.865 0.519-1.574 0.121-1.574-0.891v-2.569c0-1.012 0.709-1.41 1.574-0.891l2.136 1.28c0.822 0.502 0.822 1.297 0 1.79z"></path>
</symbol>
<symbol id="star-rating" viewBox="0 0 32 32">
<path fill="#f3cc40" style="fill: var(--color1, #f3cc40)" d="M18.6 3.249l2.64 5.28c0.36 0.72 1.32 1.44 2.12 1.56l4.78 0.8c3.060 0.52 3.78 2.72 1.58 4.92l-3.72 3.74c-0.62 0.62-0.98 1.84-0.78 2.72l1.060 4.62c0.84 3.64-1.1 5.060-4.32 3.16l-4.48-2.66c-0.82-0.48-2.14-0.48-2.96 0l-4.5 2.64c-3.22 1.9-5.16 0.48-4.32-3.16l1.060-4.62c0.2-0.86-0.16-2.080-0.78-2.72l-3.7-3.7c-2.2-2.2-1.48-4.42 1.58-4.92l4.78-0.8c0.8-0.14 1.76-0.84 2.12-1.56l2.64-5.28c1.42-2.88 3.78-2.88 5.2-0.020z"></path>
</symbol>
<symbol id="arrow-slader" viewBox="0 0 32 32">
<path d="M16 31.385c8.477 0 15.385-6.908 15.385-15.385s-6.908-15.385-15.385-15.385c-8.477 0-15.385 6.908-15.385 15.385s6.908 15.385 15.385 15.385zM11.708 15.185l5.431-5.431c0.231-0.231 0.523-0.338 0.815-0.338s0.585 0.108 0.815 0.338c0.446 0.446 0.446 1.185 0 1.631l-4.615 4.615 4.615 4.615c0.446 0.446 0.446 1.185 0 1.631s-1.185 0.446-1.631 0l-5.431-5.431c-0.462-0.446-0.462-1.185 0-1.631z"></path>
</symbol>
<symbol id="circle-gray" viewBox="0 0 32 32">
<path d="M16 0c8.837 0 16 7.163 16 16s-7.163 16-16 16c-8.837 0-16-7.163-16-16s7.163-16 16-16z"></path>
</symbol>
<symbol id="ellipse-red" viewBox="0 0 143 32">
<path fill="#f53838" style="fill: var(--color1, #f53838)" d="M16 0h110.769c8.837 0 16 7.163 16 16s-7.163 16-16 16h-110.769c-8.837 0-16-7.163-16-16s7.163-16 16-16z"></path>
</symbol>
<symbol id="icon-_coding" viewBox="0 0 32 32">
<path d="M8.282 8.465c-0.345-0.288-0.792-0.462-1.281-0.462-0.615 0-1.166 0.277-1.533 0.713l-0.002 0.003-5 6c-0.29 0.344-0.466 0.792-0.466 1.281s0.176 0.937 0.468 1.284l-0.002-0.003 5 6c0.369 0.445 0.923 0.727 1.542 0.727 1.104 0 1.999-0.895 1.999-1.999 0-0.493-0.178-0.944-0.474-1.293l0.002 0.003-3.933-4.718 3.933-4.718c0.289-0.344 0.464-0.792 0.464-1.281 0-0.615-0.278-1.166-0.715-1.533l-0.003-0.003z"></path>
<path d="M18.39 4.040c-0.113-0.022-0.243-0.035-0.376-0.035-0.969 0-1.778 0.682-1.974 1.592l-0.002 0.013-4 19.999c-0.025 0.118-0.039 0.255-0.039 0.394 0 0.965 0.686 1.771 1.597 1.955l0.013 0.002c0.115 0.025 0.248 0.039 0.384 0.039 0.004 0 0.008 0 0.011-0h-0.001c0.965-0.002 1.769-0.686 1.955-1.596l0.002-0.013 4-19.999c0.025-0.118 0.039-0.255 0.039-0.394 0-0.965-0.686-1.771-1.597-1.955l-0.013-0.002z"></path>
<path d="M31.534 14.719l-5-6c-0.369-0.445-0.923-0.727-1.542-0.727-1.104 0-1.999 0.895-1.999 1.999 0 0.493 0.178 0.944 0.474 1.293l-0.002-0.003 3.933 4.719-3.933 4.718c-0.293 0.346-0.471 0.797-0.471 1.29 0 1.104 0.895 1.999 1.999 1.999 0.619 0 1.173-0.281 1.539-0.723l0.003-0.003 5-6c0.29-0.344 0.466-0.792 0.466-1.281s-0.176-0.937-0.468-1.284l0.002 0.003z"></path>
</symbol>
<symbol id="icon-web" viewBox="0 0 32 32">
<path d="M24 4h-16c-2.933 0-5.333 2.4-5.333 5.333v13.333c0 2.933 2.4 5.333 5.333 5.333h16c2.933 0 5.333-2.4 5.333-5.333v-13.333c0-2.933-2.4-5.333-5.333-5.333zM26.667 22.667c0 1.467-1.2 2.667-2.667 2.667h-16c-1.467 0-2.667-1.2-2.667-2.667v-9.333h21.333v9.333zM26.667 10.667h-21.333v-1.333c0-1.467 1.2-2.667 2.667-2.667h16c1.467 0 2.667 1.2 2.667 2.667v1.333z"></path>
<path d="M15.6 8.8c0 0.589-0.478 1.067-1.067 1.067s-1.067-0.478-1.067-1.067c0-0.589 0.478-1.067 1.067-1.067s1.067 0.478 1.067 1.067z"></path>
<path d="M12.133 8.8c0 0.589-0.478 1.067-1.067 1.067s-1.067-0.478-1.067-1.067c0-0.589 0.478-1.067 1.067-1.067s1.067 0.478 1.067 1.067z"></path>
<path d="M8.8 8.8c0 0.589-0.478 1.067-1.067 1.067s-1.067-0.478-1.067-1.067c0-0.589 0.478-1.067 1.067-1.067s1.067 0.478 1.067 1.067z"></path>
</symbol>
<symbol id="icon-student" viewBox="0 0 32 32">
<path d="M28.474 6.577l-12-4c-0.142-0.049-0.305-0.077-0.474-0.077s-0.333 0.028-0.485 0.080l0.011-0.003-12 4c-0.022 0.007-0.043 0.016-0.064 0.024-0.025 0.010-0.050 0.020-0.075 0.031-0.031 0.014-0.061 0.028-0.090 0.044-0.015 0.008-0.029 0.017-0.043 0.025-0.025 0.014-0.049 0.029-0.073 0.045-0.014 0.009-0.027 0.018-0.040 0.028q-0.037 0.026-0.072 0.054c-0.011 0.009-0.023 0.018-0.034 0.027q-0.042 0.035-0.081 0.073c-0.006 0.005-0.011 0.010-0.017 0.016q-0.047 0.047-0.089 0.098c-0.008 0.010-0.015 0.020-0.023 0.029-0.019 0.024-0.038 0.049-0.056 0.075-0.010 0.014-0.019 0.028-0.029 0.043q-0.022 0.034-0.042 0.069c-0.009 0.016-0.018 0.032-0.027 0.048-0.013 0.025-0.025 0.051-0.037 0.077-0.007 0.014-0.014 0.028-0.020 0.043-0.016 0.039-0.030 0.078-0.043 0.118-0.005 0.016-0.009 0.033-0.014 0.050-0.008 0.027-0.015 0.054-0.021 0.082-0.004 0.018-0.007 0.035-0.011 0.053-0.005 0.029-0.010 0.059-0.014 0.089-0.002 0.016-0.004 0.031-0.006 0.047-0.004 0.046-0.007 0.092-0.007 0.138v10c0 0.828 0.672 1.5 1.5 1.5s1.5-0.672 1.5-1.5v0-7.919l2.964 0.988c-0.608 1.14-0.964 2.493-0.964 3.929 0 2.693 1.255 5.094 3.211 6.649l0.017 0.013c-2.157 1.019-3.921 2.564-5.177 4.473l-0.029 0.047c-0.153 0.231-0.243 0.514-0.243 0.819 0 0.828 0.672 1.5 1.5 1.5 0.524 0 0.984-0.268 1.253-0.675l0.003-0.006c1.721-2.616 4.644-4.319 7.964-4.319s6.243 1.703 7.942 4.283l0.022 0.036c0.272 0.412 0.733 0.681 1.256 0.681 0.828 0 1.5-0.672 1.5-1.5 0-0.305-0.091-0.588-0.247-0.825l0.003 0.006c-1.285-1.956-3.049-3.501-5.13-4.488l-0.076-0.032c1.974-1.568 3.229-3.969 3.229-6.662 0-1.436-0.357-2.789-0.987-3.975l0.022 0.046 4.939-1.646c0.601-0.205 1.026-0.764 1.026-1.423s-0.425-1.218-1.015-1.42l-0.011-0.003zM16 5.581l7.257 2.419-7.257 2.419-7.257-2.419zM21.5 15c0 0 0 0.001 0 0.001 0 3.038-2.462 5.5-5.5 5.5s-5.5-2.462-5.5-5.5c0-1.101 0.323-2.126 0.88-2.986l-0.013 0.021 4.158 1.386c0.142 0.049 0.305 0.077 0.474 0.077s0.333-0.028 0.485-0.080l-0.011 0.003 4.158-1.386c0.544 0.837 0.867 1.861 0.867 2.96 0 0.001 0 0.002 0 0.004v-0z"></path>
</symbol>


</defs>
</svg>
