<svg width="39" height="39" viewBox="0 0 39 39" fill="none" xmlns="http://www.w3.org/2000/svg">
<path d="M19.5 38.25C29.8313 38.25 38.25 29.8313 38.25 19.5C38.25 9.16875 29.8313 0.749999 19.5 0.749998C9.16875 0.749997 0.750003 9.16875 0.750002 19.5C0.750001 29.8312 9.16875 38.25 19.5 38.25ZM14.2688 18.5062L20.8875 11.8875C21.1688 11.6062 21.525 11.475 21.8813 11.475C22.2375 11.475 22.5938 11.6062 22.875 11.8875C23.4188 12.4313 23.4188 13.3312 22.875 13.875L17.25 19.5L22.875 25.125C23.4188 25.6687 23.4188 26.5687 22.875 27.1125C22.3313 27.6562 21.4313 27.6562 20.8875 27.1125L14.2688 20.4937C13.7063 19.95 13.7063 19.05 14.2688 18.5062Z" fill="#D1D1D1"/>
</svg>
